<?xml version="1.0" encoding="utf-8"?>
<!-- Generator: Adobe Illustrator 21.1.0, SVG Export Plug-In . SVG Version: 6.00 Build 0)  -->
<svg version="1.1" xmlns="http://www.w3.org/2000/svg" xmlns:xlink="http://www.w3.org/1999/xlink" x="0px" y="0px"
	 viewBox="0 0 405 378" style="enable-background:new 0 0 405 378;" xml:space="preserve">
<style type="text/css">
	.st0{display:none;}
	.st1{display:inline;fill:#FFC78A;}
	.st2{display:inline;fill:#231D1D;}
	.st3{display:inline;fill:#808080;}
	.st4{display:inline;fill:none;stroke:#FFC78A;stroke-miterlimit:10;}
	.st5{fill:none;stroke:#000000;stroke-width:2;stroke-miterlimit:10;}
	.st6{fill:#FFC78A;}
	.st7{fill:#808080;}
	.st8{fill:#444445;}
</style>
<g id="Layer_1" class="st0">
	<title>artboard2</title>
	<path class="st1" d="M77.9,195.8h7.4v40.3h12.2v6.7H77.9V195.8z"/>
	<path class="st1" d="M104.6,207.1c0-7.5,4-11.8,11.2-11.8s11.2,4.3,11.2,11.8v24.5c0,7.5-4,11.8-11.2,11.8s-11.2-4.3-11.2-11.8
		L104.6,207.1z M112,232c0,3.4,1.5,4.6,3.8,4.6s3.8-1.3,3.8-4.6v-25.4c0-3.4-1.5-4.6-3.8-4.6s-3.8,1.3-3.8,4.6V232z"/>
	<path class="st1" d="M143,208.8h-0.1v34.1h-6.7v-47.1h9.3L153,224h0.1v-28.2h6.6v47.1h-7.6L143,208.8z"/>
	<path class="st1" d="M180.6,216.6H191v14.9c0,7.5-3.8,11.8-11,11.8s-11-4.3-11-11.8v-24.5c0-7.5,3.8-11.8,11-11.8s11,4.3,11,11.8
		v4.6h-7v-5c0-3.4-1.5-4.6-3.8-4.6s-3.8,1.3-3.8,4.6V232c0,3.4,1.5,4.6,3.8,4.6s3.8-1.2,3.8-4.6v-8.7h-3.4L180.6,216.6z"/>
	<path class="st1" d="M215.7,242.8c-0.4-1.2-0.7-1.9-0.7-5.8v-7.4c0-4.4-1.5-6-4.8-6h-2.6v19.2h-7.4v-47.1h11.2
		c7.7,0,11,3.6,11,10.8v3.7c0,4.8-1.6,7.9-4.8,9.5v0.1c3.7,1.6,4.9,5,4.9,9.9v7.3c-0.1,1.9,0.1,3.9,0.8,5.7L215.7,242.8z
		 M207.6,202.5V217h2.9c2.8,0,4.4-1.2,4.4-5v-4.6c0-3.4-1.1-4.8-3.8-4.8L207.6,202.5z"/>
	<path class="st1" d="M231.8,195.8h7.4v47.1h-7.4V195.8z"/>
	<path class="st1" d="M249.1,195.8h11.7c7.4,0,11,4.1,11,11.6v23.8c0,7.5-3.6,11.6-11,11.6h-11.7L249.1,195.8z M256.5,202.5v33.6
		h4.2c2.4,0,3.8-1.2,3.8-4.6v-24.5c0-3.4-1.4-4.6-3.8-4.6H256.5z"/>
	<path class="st1" d="M292.1,216.6h10.4v14.9c0,7.5-3.8,11.8-11,11.8s-11-4.3-11-11.8v-24.5c0-7.5,3.8-11.8,11-11.8s11,4.3,11,11.8
		v4.6h-7v-5c0-3.4-1.5-4.6-3.8-4.6s-3.8,1.3-3.8,4.6V232c0,3.4,1.5,4.6,3.8,4.6s3.8-1.2,3.8-4.6v-8.7h-3.4L292.1,216.6z"/>
	<path class="st1" d="M319.1,215.6h10.1v6.7h-10.1v13.8h12.8v6.7h-20.2v-47.1h20.2v6.7h-12.8V215.6z"/>
	<path class="st2" d="M133.8,136.9h0.5c0.8-0.1,1.6,0.2,2.2,0.6c0.5,0.4,0.7,1,0.7,1.6c0,1-0.7,1.8-1.6,2c-0.8,0.3-1.6,0.5-2.4,0.7
		c-1.2,0.3-2.3,0.8-3.4,1.4c-0.1-0.1-0.3-0.1-0.5-0.1c-0.5,0.1-0.9,0.2-1.3,0.5c-0.4,0.3-0.9,0.5-1.4,0.4c-0.8,0.5-1.7,0.8-2.6,1
		c0,0.3,0,0.8-0.1,1.4c0,0.5-0.1,1-0.3,1.5c-0.1,0.4-0.2,0.9-0.2,1.5c-0.1,0.5-0.1,0.9-0.1,1.4c-0.3,0.9-0.4,1.9-0.5,2.9l-0.5,2.9
		c-0.1,0.9-0.3,2.1-0.6,3.8c-0.2,1-0.4,1.9-0.5,2.9c-0.2,0.8-0.4,1.6-0.7,2.3c-0.1,0.4-0.1,0.7-0.1,1.1c0,0.3,0,0.6-0.1,0.9
		c-0.2,0.6-0.4,1.8-0.8,3.6c-0.1,0.5-0.2,1-0.3,1.7c-0.1,0.6-0.2,1.2-0.1,1.7c0,0.3-0.1,0.6-0.2,0.9l-0.3,0.9
		c-0.2,0.5-0.3,1.1-0.4,1.6s-0.2,1-0.4,1.6c-0.2,0.5-0.3,1-0.3,1.6c-0.1,0.7-0.2,1.2-0.2,1.6l-0.7,2.7c-0.5,1.5-0.9,3.1-1.1,4.6
		c-0.1,0.3-0.2,0.5-0.4,0.7c-0.2,0.2-0.3,0.4-0.3,0.7v0.4c0,0.4-0.1,0.8-0.2,1.2c0,0.2-0.1,0.4-0.4,0.6c-0.3,0.2-0.4,0.5-0.3,0.9
		l-1.5,1.6l-1-0.2l-0.6,0.8l-1.6-1v-0.1l-0.5,0.7l-1.4-0.7c-0.2-0.4-0.2-0.6-0.1-0.7c0.1-0.2,0.2-0.8,0.5-1.6
		c0.2-0.8,0.3-1.6,0.2-2.4c0.1-0.3,0.2-0.6,0.3-0.9c0.2-0.2,0.4-0.3,0.7-0.5c-0.1-0.3-0.2-0.6-0.2-0.9l0.2-0.2
		c-0.2-0.2-0.3-0.2-0.3-0.2h0.1c-0.1-0.8,0-1.7,0.2-2.5c0.2-1,0.4-1.7,0.5-2.1c0.1-0.5,0.2-1.1,0.5-2c0.2-0.7,0.3-1.5,0.2-2.2
		c0-1,0.2-2,0.8-2.9l1-7.4l0.5-0.2c-0.1-0.6-0.2-1.2-0.2-1.7l0.1-1.3l0.6-0.6c-0.1-0.4-0.2-0.8-0.1-1.3c0-0.3,0-0.5,0.1-0.8
		c0.1-0.2,0.1-0.4,0.2-0.6c0-0.2,0-0.7,0.1-1.5c0.1-0.7,0.2-1.4,0.5-2c-0.1-1.1,0.1-2.2,0.4-3.2c0.3-1.2,0.6-2.2,0.7-3l0.3-1.2
		c0.1-0.8,0.2-1.6,0.5-2.4c0.3-0.6,0.4-1.2,0.6-1.9l-1.8,0.9l-2.5,1c-1.5,0.4-3,1-4.3,1.7c-0.5,0.3-1,0.4-1.5,0.5
		c-0.4,0.1-0.8,0.2-1.3,0.3l-2.7,1.4c-0.8,0.4-1.9,0.9-3.4,1.5c-0.2,0.4-0.5,0.8-0.8,1.2c-0.2,0.4-0.4,0.8-0.6,1.3
		c-0.1,0.5-0.4,0.9-0.8,1.3c-0.2,0.8-0.5,1.5-0.9,2.1c-0.5,0.7-0.8,1.2-0.9,1.4c-0.5,0.7-0.9,1.4-1.3,2.1c-1.2,2.1-2.2,4.3-3.1,6.5
		l-0.9,2.1c-0.2,0.8-0.6,1.5-0.9,2.2c-0.3,0.3-0.6,0.6-0.9,0.8l0.5,0.4v0.2c-0.5,0.8-0.8,1.6-1.1,2.5c-0.4,1-0.7,1.9-1,2.6
		c-1.2,2.5-2.2,5.2-2.8,8l-1,0.4l-0.5,0.7l-1.6-1.2c-0.1,0.1-0.2,0.4-0.5,0.8l-1.7-1.6l0.5-2.7c0-0.3,0.1-0.7,0.1-1
		c0.1-0.5,0.3-0.9,0.6-1.3c0.1-0.7,0.3-1.4,0.5-2.1c0.2-0.8,0.4-1.3,0.5-1.5c0.4-1.5,1-3,1.7-4.4h0.1c0.1-0.1,0.1-0.2,0.1-0.4
		c0-0.1,0-0.3,0.1-0.4c0.2-0.5,0.6-1.4,1-2.7c0.4-1.1,0.9-2.2,1.6-3.2c0.2-0.3,0.4-0.7,0.5-1c0.1-0.3,0.3-0.7,0.5-1
		c0.7-1.1,1.4-2.3,1.8-3.5c0.5-1.3,0.9-2.2,1.1-2.7l0.3-0.4c0.1,0.2,0.2,0.4,0.3,0.4c0.2,0,0.4-0.1,0.6-0.2l-0.9-0.1
		c0-0.3,0.1-0.7,0.2-1l-0.1,0.1l-0.9,0.5c-0.8,0.4-1.7,0.7-2.5,0.9c-0.4,0.2-0.7,0.4-1,0.6c-0.3,0.3-0.8,0.5-1.2,0.5l-6.2,3.1
		l-4.6,2.3h-2.4c-0.2,0-0.5-0.1-0.6-0.3c-0.2-0.2-0.6-0.2-0.9-0.1l-0.3,0.1c-0.4-0.1-0.7-0.3-1-0.6l-0.1-0.9l0.9-0.6l1.3-0.9
		c2.1-1.6,4.1-3,5.8-4.1c0.8-0.5,2.7-1.6,5.8-3.2l6.1-3.2c1.6-0.8,3.2-1.4,4.8-2c0.1-0.1,0.3-0.1,0.5-0.1c0.2,0,0.3,0.1,0.5,0.1
		l0.8-0.7c1.4-2.4,2.7-4.6,3.9-6.6c0.4-0.8,0.7-1.5,1-2.3l1-2.3l1-2.1c1.1-2.4,2.3-4.7,3.7-7c0.4-0.6,0.7-1.2,0.9-1.9
		c0.4-1.2,1.1-2.2,2.1-3c0.6-0.6,1-1.3,1.4-2.1c0.2-0.4,0.3-0.7,0.4-1.1c0.2-0.5,0.5-1,1-1.2c0.2-1.2,0.7-2.2,1.5-3.1
		c0.5-0.7,0.9-1.5,1.3-2.3c0.1-0.1,0.1-0.1,0.1-0.2c0-0.1,0-0.1,0.1-0.1c0,0,0,0,0,0c0.8-0.8,1.6-1.8,2.2-2.8c0.7-1,1.5-2,2.4-2.9
		c0.2-0.2,0.3-0.5,0.5-0.7c0.2-0.2,0.4-0.5,0.5-0.7l2.1-1c1.8-0.2,3.2-0.2,4-0.2c0.7,0.3,1.3,0.7,1.9,1.2c0.8,2,1.2,4.2,1.3,6.4
		c-0.1,1.2-0.2,2.3-0.5,3.5l-0.1,0.8c0,1.5-0.1,3-0.3,4.4c-0.2,0.9-0.2,1.9-0.2,2.8v2l-0.6,0.5l0.3,1.5l-0.7,5l-0.7,4.2l2.2-0.6
		l2.7-0.7c0.9-0.3,1.7-0.5,2.6-0.7L133.8,136.9z M81.7,177h-0.1v0.6h0.1V177z M82.2,175.5l-0.2-0.1C82,175.5,82.1,175.6,82.2,175.5
		L82.2,175.5z M88.2,173.5h-0.1v0.5h0.1V173.5z M89.2,171.4H89l0.1,0.2L89.2,171.4z M96,149.5c0.1,0,0.1,0,0.1-0.1c0,0,0,0,0,0
		L96,149.5z M116.3,141.5c0.3,0,0.6,0,0.9-0.1c0-0.3-0.1-0.6-0.2-0.8c0.2-0.2,0.4-0.4,0.6-0.7c0.1-0.1,0-0.3-0.3-0.6h0.1v-0.5
		c0-1.1,0.2-2.3,0.6-3.4c0.3-1.1,0.6-2.2,0.8-3.4l1-6.3c0.5-3.1,0.6-6.2,0.5-9.3c-0.4,0.1-0.7,0.3-0.9,0.6c-0.2,0.2-0.3,0.5-0.5,0.7
		c-0.5,0.6-0.9,1.3-1.3,2l-1.3,1.8l-1.8,2.7l-0.9,1.3c-0.4,0.5-0.7,1.1-0.9,1.7c0,0.3,0,0.5-0.1,0.5c-0.4,0.2-0.7,0.6-0.7,1
		c0,0.4-0.2,0.7-0.5,1c-0.2,0.8-0.5,1.5-0.9,2.1c-0.5,0.7-1,1.4-1.5,2.1c0,0.2,0,0.4-0.1,0.6c-0.1,0.3-0.2,0.6-0.3,0.8l-1.9,3.4
		c-1.1,2-1.9,3.5-2.5,4.4c-0.4,0.8-0.8,1.7-1.1,2.6c0,0.1,0,0.3,0.1,0.4l-1,0.7c0.6-0.1,1.1-0.3,1.6-0.6c0.6-0.3,1.1-0.5,1.5-0.7
		l5.7-2.2c0.2-0.1,0.7-0.4,1.6-0.9l0.8,0.2l1.4-0.6l1.1-0.5L116.3,141.5z M109.3,195.4c0-0.1,0-0.2-0.1-0.4c0-0.2-0.1-0.3-0.3-0.4
		l-0.6,0.7L109.3,195.4z M110.6,183h-0.1l0.1,0.1V183z M111.2,129.7l-0.1-0.9C110.9,129,110.9,129.4,111.2,129.7
		C111.2,129.7,111.3,129.7,111.2,129.7L111.2,129.7z M120.4,116.2l-0.1,0.2l0.2-0.1C120.5,116.3,120.5,116.3,120.4,116.2
		L120.4,116.2z"/>
	<path class="st2" d="M175,156.4c0.6,0,1.2,0.2,1.7,0.5c0.5,0.3,0.7,0.8,0.7,1.3c0,0.5-0.2,1-0.6,1.4c-0.8,1.2-3.5,4-8.1,8.3
		c-3.2,3.2-6.8,6.2-10.6,8.8c-0.2,0.1-0.5,0.2-0.7,0.3c-0.5,0.3-1,0.7-1.3,1.1l-0.2-0.1c-0.2,0.4-0.4,1-0.7,1.7
		c-0.3,0.7-0.5,1.4-0.5,2.2c-0.1,1-0.3,1.9-0.7,2.8c-0.3,0.8-0.5,1.7-0.6,2.6c-0.6,0.9-1,1.8-1.3,2.8c-0.3,1.1-0.6,2-0.8,2.6
		c0,0.1,0,0.3-0.1,0.4c-0.1,0.1-0.2,0.2-0.2,0.4c0,0.4,0,0.8,0.1,1.2c-0.3,0.2-0.7,0.4-0.9,0.7l0.1,1.7c-1.4,5-3.7,9.8-6.6,14.1
		c-0.5,0.7-1.1,1.7-1.8,3.1c-0.3,0.5-0.7,1-1.1,1.4c0-0.1,0-0.2-0.1-0.3c0-0.1-0.2-0.1-0.4,0.1l0.5,0.2c-0.5,0.6-0.9,1.1-1.3,1.7
		c-0.4,0.6-0.9,1.3-1.4,2c-0.2,0.2-0.5,0.3-0.8,0.4l-0.6,1.2l-3.2,3.1c-1.8,2.3-4.2,4-7,5c-1.1,0.5-2.4,0.8-3.7,0.8
		c-0.4,0-1.4,0.1-3.1,0.2c-0.6-0.2-1.2-0.5-1.7-0.8l-1.5-0.8c-0.9-0.9-1.5-2-1.9-3.1c-0.5-1.2-0.8-2-0.9-2.4l-0.1-3
		c0-1.3,0.1-2.5,0.5-3.7c0.2-0.4,0.4-1.1,0.7-2.3c0.3-1,0.7-1.9,1.2-2.8c0.5-0.7,0.9-1.4,1.3-2.1c0.4-0.7,0.8-1.4,1.3-2.1
		c0.3-0.4,0.5-0.8,0.5-1.2c0.1-0.4,0.2-0.7,0.3-1.1c1.4-1.7,2.7-3.4,3.9-5c1-1.4,2.1-2.6,3.4-3.7l3-2.8c0.7-0.8,1.5-1.6,2.4-2.4
		c1.4-1.3,2.8-2.6,4.4-3.7c0.6-0.4,1.2-0.9,1.6-1.5c1.4-1.7,3.1-3.1,5-4.3c2.1-1.5,3.7-2.7,4.8-3.6c1-2.9,1.5-5.9,1.6-8.9
		c-0.6,0.3-1.2,0.8-1.7,1.3c-0.5,0.5-1.1,1-1.7,1.4l-1.4,1.1h-0.2c-1,1.2-2.3,2.1-3.8,2.7c-0.2,0.1-0.5,0.2-0.9,0.4
		c-0.4,0.2-0.8,0.3-1.2,0.4c-0.3,0-0.7,0.1-1,0.2l-0.9,0.3c-1-0.3-2-0.5-3-0.6c-1,0-1.9-0.3-2.6-0.9c-1.1-0.8-1.7-2.1-1.7-3.5
		c0-0.4-0.1-0.8-0.2-1.2c-0.1-0.4-0.2-0.8-0.2-1.2c0-0.4,0.1-0.9,0.3-1.3c0.1-0.3,0-0.7-0.1-1c-0.1-0.4-0.1-0.9,0.2-1.3
		c0.5-0.9,0.9-1.9,1-2.9c0.3-1.8,0.9-3.6,1.7-5.3c0.8-1.9,1.9-3.5,3.3-5c0.7-0.6,1.7-1,2.6-0.9c1,0,2,0.3,2.7,1
		c0.6,0.4,0.9,1.3,0.6,2c-0.3,0.6-1,1.8-1.9,3.6c-0.9,1.6-1.6,3.4-2.2,5.2c-0.5,1.6-0.7,3.3-0.7,5c0,0.8,0,1.6,0.1,2.4
		c0,0.3,0.2,0.7,0.3,0.9l0.3,0.5c0.3-0.2,0.9-0.5,1.8-1c0.8-0.5,1.6-1.1,2.1-1.9c0.3-0.5,0.7-0.9,1.1-1.2c0.4-0.3,0.8-0.6,1.2-0.9
		c0.7-0.5,1.2-1.2,1.5-1.9c0.3-0.6,0.7-1.1,1.1-1.6c0.4-0.5,0.8-1,1.1-1.6c0.9-1.8,2.4-3.2,4.2-3.9l1.4,0.4l0.8-0.9
		c0.6,0.2,1.2,0.6,1.7,1c0.2,0,0.4-0.1,0.6-0.3c0.3-0.1,0.6-0.2,0.9-0.3c0.3,0.2,0.6,0.3,0.9,0.4l0.7,0.5c0,0.2,0.1,0.4,0.2,0.5
		c0.1,0.2,0.2,0.3,0.2,0.5c-0.2,0.8-0.4,1.6-0.5,2.4c-0.1,0.9-0.1,1.5-0.1,1.8c-0.1,0.9-0.4,1.8-0.7,2.7c0.1,0.8,0,1.5-0.2,2.3
		c-0.2,0.8-0.3,1.6-0.2,2.4c0.1,0.2,0.2,0.2,0.4,0.2c0.2,0,0.4-0.1,0.5-0.3c2.5-1.9,5.4-4.2,8.8-7.2c2.4-1.9,4.5-4.1,6.4-6.5
		C173.5,156.6,174.3,156.3,175,156.4z M146.2,185.8c-0.1,0-0.3,0-0.4-0.1c-0.1,0-0.2,0-0.3,0.1c-0.8,0.4-1.6,0.9-2.3,1.5l-5.9,5.4
		c-0.9,0.7-1.4,1.1-1.5,1.2c-0.2,0.2-0.5,0.4-0.7,0.5c-0.3,0.2-0.6,0.5-0.8,0.9c-0.4,0.7-0.8,1.3-1.4,1.9c-0.6,0.6-1.1,1.2-1.5,2
		l-0.7,0.2c-0.1,0.5-0.4,1-0.8,1.4c-0.8,0.9-1.3,1.5-1.5,1.6c-0.5,0.9-1.4,2.2-2.6,3.9l-1.9,2.9c-0.8,1-1.4,2.1-1.8,3.3
		c-0.5,1.2-0.7,1.9-0.8,2.1v0.3c0,0.4-0.2,0.7-0.5,0.9c-0.3,0.3-0.5,0.5-0.5,0.7c0,0.3,0,0.6,0.1,0.9c0.1,0.2,0.1,0.5,0,0.7
		c-0.3,0.9-0.5,1.8-0.5,2.7c0.1,1.6,0.4,3.1,1,4.5c0.4,0.2,0.9,0.3,1.4,0.4l0.8-0.6c2.8-1.6,5.3-3.7,7.4-6.1l1.5-1.7
		c1.6-2,2.6-3.2,2.9-3.7l4.9-7.3c-0.1-0.2-0.1-0.4-0.1-0.6l1.7-4.3c0.2-0.5,0.6-1.3,1-2.1c0.4-0.7,0.6-1.5,0.7-2.3l0.5-1.6
		c0.1-0.2,0.3-0.9,0.8-1.9c0.4-1,0.7-2.1,0.8-3.2c0-0.4,0.1-0.7,0.3-1C146.2,188.2,146.4,187,146.2,185.8z M146.4,185.4l-0.1,0.4
		C146.5,185.6,146.5,185.5,146.4,185.4z M148.7,161.3h-0.1l0.1,0.1V161.3z"/>
	<path class="st2" d="M217.8,157.9c0.6,0,1.1,0.2,1.5,0.6c0.4,0.4,0.6,0.9,0.6,1.4c0,0.3-0.1,0.6-0.2,0.9l-2.4,2.8l-2.5,2l-5,3.9
		c-0.4,0.3-1.1,0.9-2.2,1.6c-0.9,0.7-1.9,1.3-3,1.8c-1,0.4-2,0.7-3,0.9c-0.9,0.6-1.9,0.9-3,0.8c-0.3,0-0.7,0.1-1,0.1
		c-0.4,0.1-0.9,0.2-1.3,0.4l-4.4-1c-0.6-0.1-1-0.5-1.3-1v0.1l-0.6-0.1c-0.7-0.7-1.2-1.7-1.4-2.7c-0.4-1.4-0.6-2.8-0.7-4.2
		c0-0.5,0-0.9,0.1-1.4c0.1-1,0.1-2,0.1-3l0.6-0.5c-0.1-0.8-0.1-1.9-0.1-3.4c-0.2,0-0.3,0-0.5,0.1c-0.4,0.4-1.1,1.1-2.1,2.1
		c-1,0.9-1.8,1.9-2.6,3c-0.2,0.3-0.5,0.6-0.9,0.8c-0.4,0.3-0.6,0.7-0.6,1.2c-0.2,0.2-0.4,0.4-0.8,0.7c-0.3,0.3-0.6,0.6-0.8,1
		c-0.3,0.6-0.7,1.2-1.1,1.6c-0.3,0.2-0.4,0.5-0.5,0.8c0,0.3-0.1,0.5-0.2,0.8c-0.2,0.2-0.4,0.6-0.6,1c-0.2,0.4-0.5,0.7-0.7,1
		c-0.3,0.4-0.5,0.8-0.7,1.2c-0.3,0.5-0.5,0.9-0.6,1.2c-0.5,0.5-1.1,1-1.7,1.4l-1.3-0.2l-1,0.5l-1.5-0.9l-1.1,0.4l-1-0.8
		c-0.1-0.4-0.1-0.8-0.1-1.3c0-0.9,0.2-1.8,0.6-2.7c0.3-0.9,0.6-1.8,0.8-2.7c0.2-0.4,0.4-1.2,0.7-2.4c0.3-1.1,0.7-2.1,1.2-3.1V162
		c0-0.3,0-0.7,0.1-1v-0.2c0-0.1,0-0.3-0.1-0.4c-0.1-0.1-0.2-0.3-0.2-0.4c0.3-0.1,0.6-0.1,0.9-0.1c-0.5-0.5-0.8-0.4-0.9,0.1
		c1-4.7,2-7.5,3-8.5l1.4,0.5l1.4-0.1c0.5,0.6,1,1.1,1.6,1.5c0.4,1.1,0.6,2.3,0.7,3.5c0,0.6-0.2,1.1-0.3,1.6c-0.2,0.6-0.3,1.3-0.1,2
		c0.1-0.1,0.3-0.3,0.5-0.4c0.1-0.1,0.3-0.2,0.3-0.4c0.6-0.9,1.3-1.7,2.1-2.6c0.6-0.6,1.3-1.2,1.9-1.8l1.6-1.3l2.9-2.8l1.8-1.9
		c0.5,0,0.9-0.1,1.4-0.2c0.5-0.1,1.1-0.1,1.6-0.1c0.5,0.1,1,0.1,1.4,0.1c0.4,0,0.9,0,1.3,0.1c0.7,0.4,1.2,1.1,1.3,1.9
		c0.1,0.4,0.1,0.7,0.1,1.1v0.9l-0.6,0.5c0.1,0.4,0.1,0.8,0.1,1.2c0,0.3,0,0.6-0.1,0.9c-0.3,0.9-0.6,1.9-0.7,2.9
		c-0.2,1.1-0.3,1.8-0.4,2.2l-0.6,2.7c-0.1,0.7-0.2,1.5-0.2,2.2c0,0.9,0.1,1.7,0.5,2.6c0.2,0.7,0.3,1.4,0.3,2.1l0.9,1.3l0.8,0.1
		c1.2-0.4,2-0.7,2.4-0.8c3.2-1.3,6.2-3.1,8.8-5.4l0.6-0.4c2-1.3,3.9-2.9,5.6-4.6l1.6-1.9C216.6,158.2,217.2,157.9,217.8,157.9z
		 M187.1,157.6h-0.2v0.1L187.1,157.6z M189,157.5c-0.1,0.1-0.1,0.2-0.1,0.4C189.2,157.9,189.2,157.7,189,157.5L189,157.5z
		 M189.3,170.8c0.1-0.3,0.2-0.6,0.2-0.9v-0.1C189.4,170.1,189.3,170.5,189.3,170.8L189.3,170.8z M190.6,171.3l-1.1-0.2l0.9,0.5
		L190.6,171.3z M191.6,173c-0.2-0.3-0.4-0.7-0.7-1c0,0.3-0.1,0.7-0.2,1H191.6z M192,173.3l-0.2-0.1l0.2,0.4V173.3z"/>
	<path class="st2" d="M242.9,157.5c0.5,0,0.9,0.2,1.2,0.5c0.4,0.4,0.5,1,0.3,1.4c-0.4,0.8-0.9,1.5-1.5,2.1c-0.9,0.9-1.6,1.7-2.2,2.2
		l-5.3,3.7l-0.7,0.4c-0.8,0.7-2,1.6-3.7,2.9s-2.7,2-3.1,2.2c-0.2,0.2-1.8,1.4-4.6,3.6v1c0,0.5,0.1,0.9,0.2,1.4
		c0.1,0.3,0.1,0.6,0.1,0.9c0,0.6-0.1,1.1-0.3,1.6c0.3,0.8,0.4,1.7,0.3,2.6c0,0.9,0,1.7-0.1,2.6l-0.3,3.1c0,0.2,0,0.5-0.1,0.7
		c-0.1,0.3-0.1,0.6-0.2,0.8c-0.1,0.5-0.2,1-0.5,1.4c-0.3,0.5-0.6,1-0.7,1.6c-0.2,0.6-0.4,1.1-0.7,1.6c-0.6,0.9-1.3,1.7-2.1,2.3
		c-0.9,0.8-1.9,1.4-2.9,1.9l-0.9,0.5l-0.6,0.4c-1,0.1-2.2,0.1-3.7,0.1c-1.8,0.1-3.6-0.4-5.1-1.4c-0.4-0.5-0.7-1.1-1-1.6
		c-0.3-0.5-0.6-1-1-1.6v-3.2c0.1-1.6,0.6-3.1,1.4-4.5c1.4-2.3,3-4.4,4.9-6.3c0.4-0.5,0.8-1,1.3-1.6c0.5-0.6,1-1.2,1.6-1.8
		c0.4-0.5,0.8-0.8,1.3-1.2c0.9-0.4,1.6-1.1,1.8-2.1c-0.1-1-0.2-2.1-0.3-3.4c-0.1-1.2-0.3-2.2-0.3-2.9c-0.3-1.8-0.5-3.2-0.6-4.3
		c-0.2-1-0.3-1.9-0.3-2.9l0.1-2.8c0.2-0.7,0.5-1.4,0.8-2.1l0.3-0.2l-0.3-0.4v0.1c-0.1-0.3-0.1-0.6-0.1-0.9c0-0.7,0.2-1.5,0.5-2.1
		c0.3-0.7,0.8-1.5,1.4-2.5c0.4-0.7,1-1.4,1.7-1.9c0.7-0.5,1.5-1,2.2-1.5c0.4-0.3,0.8-0.5,1.3-0.6h3.1c0.6,0.3,1.2,0.6,1.7,0.9
		l1.4,1.2l-0.2,2.9c-0.6,0.9-1.6,2.1-3,3.8c-0.5,0.6-1.1,1.1-1.7,1.6c-0.7,0.5-1.3,1.2-1.8,1.9l-0.5,2.2l0.8,4.4l-0.3,0.6
		c0.1,0.3,0.1,0.6,0.2,0.9s0.1,0.5,0.2,0.8c0.1,0.3,0.1,0.5,0.1,0.8c0,0.2,0,0.4,0.1,0.6v0.5c0,0.4,0.1,0.9,0.2,1.3l5.6-3.8l5.3-3.7
		l2.1-1.7c1-1.1,2.2-2,3.6-2.7c1.3-1.1,2.1-1.6,2.3-1.5l1.3-0.7L242.9,157.5z M205.3,197.4c0,0.4,0.3,0.7,0.8,0.9
		c0.1-0.5-0.3-1-0.8-1.2V197.4z M206.5,198.7l-0.2-0.1l0.1,0.1H206.5z M207.3,197.1c0.1,0,0.2,0,0.3,0.1
		C207.6,197,207.5,197,207.3,197.1L207.3,197.1z M216.7,185v-0.7l-0.1-1.9c-1.1,0.4-2,1.1-2.8,2c-0.6,0.7-1.2,1.4-1.9,2
		c-1.2,2.4-2.2,4.1-2.9,5.3v0.5l0.6,0.6l-0.2,1.9l-0.6,0.6c0.9,0.6,1.7,1.3,2.5,2.1c1.7-1.3,3-3.1,3.7-5.2c0.2-0.8,0.5-1.7,0.8-2.5
		c0.3-0.9,0.6-1.8,0.7-2.7L216.7,185z M209.6,196.8c-0.1-0.1-0.1-0.2-0.1-0.4l-0.1,0.2L209.6,196.8z M210,197l-0.3-0.1
		c0.1,0.1,0.1,0.2,0.1,0.4L210,197z M215.2,156.9v0.5l-0.3-0.2C215,157,215.1,156.9,215.2,156.9L215.2,156.9z M220.4,194.9l-0.1,0.1
		h0.1V194.9z"/>
	<path class="st2" d="M241.3,175.7c-1-3.6-1.6-7.3-1.7-11c0-1.6,0.1-3.3,0.3-4.9c0-0.1,0-0.2-0.1-0.4c-0.1-0.2-0.1-0.3,0-0.4
		c0.1-0.2,0.2-0.6,0.4-1c0.2-0.4,0.3-0.8,0.3-1.3c0-0.2,0-0.5-0.1-0.7c0.3-0.3,0.5-0.7,0.6-1.1c0.1-0.5,0.2-0.9,0.2-1.2
		c0.2-0.4,0.3-0.8,0.4-1.2l0.3-1.2c0.2-0.8,0.6-2.1,1.3-3.8l1-3l1.7-4.5c0.1-0.1,0.2-0.3,0.3-0.5c0.1-0.2,0.2-0.3,0.2-0.5
		c0-0.2,0-0.3-0.1-0.5l0.7-1c0.1-0.1,0.1-0.3,0-0.5c-0.1-0.1-0.1-0.3,0-0.5c0.8-1.9,1.4-3.7,1.9-5.3c0.3-0.7,0.6-1.4,0.8-2.1
		l0.3-1.1c0.1-0.5,0.4-0.8,0.8-1.1c0.1-0.3,0.1-0.7,0.2-1c0-0.4,0.2-0.7,0.4-1c0.6-0.7,1-1.5,1.4-2.3c0.4-0.8,0.9-1.6,1.4-2.3
		l2.1-4.1c0.1-0.2,0.2-0.5,0.3-0.8c0.1-0.3,0.2-0.5,0.4-0.8c0.6-0.6,1.1-1.2,1.5-1.9c0.5-0.8,0.9-1.5,1.2-1.9l0.9-1.2l1.4-1.4
		c0.6-0.5,1-1.2,1.4-1.8c0.6-0.4,1.1-0.9,1.6-1.4c0.5-0.6,1.2-1,1.9-1.3l1.7-0.6c0.8-0.3,1.7-0.4,2.6-0.3h1.1l0.8,0.5
		c0.3,0.2,0.6,0.4,0.9,0.6l1.4,1.4l0.6,3.7c-0.5,2.3-0.7,3.6-0.8,3.9c-0.1,0.6-0.3,1.1-0.5,1.6c-0.2,0.5-0.4,0.8-0.5,1.2l-1.1,2.4
		c-0.5,1.2-0.9,2.3-1.2,3.2c-0.2,0.5-0.4,1-0.7,1.5c-0.3,0.5-0.5,1-0.6,1.5c-0.1,0.6-0.3,1.1-0.6,1.6l-0.7,1.4l-1.3,2.9
		c-0.5,0.9-1.7,2.7-3.7,5.7c-0.4,0.3-0.6,0.8-0.7,1.3c-0.1,0.4-0.4,0.7-0.7,1c-1.2,1.2-2,2.7-2.5,4.3c-0.4,1.1-1.2,2-2.2,2.7
		c-0.7,1.9-1.7,3.6-3.1,5c-0.6,1-1.4,2-2.3,2.8c-0.8,0.7-1.5,1.4-2.1,2.3c-0.8,1.1-1.7,2.1-2.6,3c-0.1,0.1-0.3,0.3-0.5,0.4
		c-0.2,0.1-0.4,0.2-0.6,0.4c-0.6,1.3-1,2.6-1.2,4.1c-0.2,1.7-0.3,3.4-0.3,5.1c0,1.8,0.2,3.6,0.7,5.3c0.5,1.7,1.4,2.4,2.6,2.3
		c2.1-0.5,4.1-1.4,5.9-2.7l5.7-3.9c1.2-0.8,3.6-3.3,7.1-7.5c1.7-2,2.7-3.2,3.2-3.7c0.8-1.2,1.6-1.7,2.4-1.7c0.5,0,0.9,0.2,1.2,0.6
		c0.3,0.4,0.5,1,0.5,1.6c0,0.5-0.1,0.9-0.2,1.4c-1.2,2.3-2.8,4.5-4.5,6.4c-1.7,2.1-3.5,4.1-5.5,5.9l-2.1,1.4l-4.5,3.1
		c-0.6,0.4-1.3,0.7-2,1c-0.8,0.3-1.4,0.5-1.8,0.7l-2.8,1c-0.5,0.1-0.9,0.1-1.4,0.1c-0.6,0-1.1,0.1-1.6,0.4l-0.7-0.2
		c-0.3-0.1-0.7-0.1-1-0.1c-1.2,0-2.3-0.5-3.1-1.4L241.3,175.7z M244.3,177.1l0.2-0.1v-0.5h-0.2V177.1z M245.8,175.5l0.1,0.1v-0.2
		L245.8,175.5z M269.4,108.3c-0.2,0.1-0.4,0.2-0.6,0.3c-0.2,0.1-0.3,0.2-0.5,0.3c-0.3,0.5-0.8,1.3-1.4,2.2c-0.5,0.8-1.1,1.6-1.7,2.3
		c-1,1.2-1.9,2.5-2.7,3.9c-0.9,1.5-1.5,2.6-1.9,3.2c-0.7,1.2-1.3,2.5-1.8,3.8c-0.2,0.6-0.5,1.3-0.8,1.8c-0.1,0.3-0.2,0.5-0.2,0.8
		c-0.1,0.3-0.2,0.6-0.3,0.9c-0.6,0.9-1,1.8-1.3,2.8c-0.2,0.4-0.3,0.8-0.5,1.3c-0.1,0.5-0.3,0.9-0.5,1.3c-0.3,0.7-0.7,1.6-1.3,2.7
		c-0.5,1-0.9,2-1.1,3.1c-0.1,0.5-0.8,2.8-2.1,7.1c0.4,0.2,0.6,0.1,0.8-0.4l0.9-1.5l1.5-1.9l3.8-5.7l1.6-2.2c0.6-0.8,1.1-1.7,1.4-2.7
		c0.5-0.2,0.8-0.7,0.9-1.2c0.1-0.4,0.2-0.7,0.3-1.1c0.3-0.4,0.5-0.8,0.7-1.3c0.5-0.8,0.9-1.7,1.3-2.6c1.8-4,3.2-7.1,4-9.2l0.5-0.6
		l0.1-0.6l-0.1-0.7l0.3-0.3c0.1-0.1,0.2-0.3,0.2-0.4c0.1-0.5,0.1-1,0.2-1.7c0.1-0.6,0.2-1.1,0.3-1.7c0.1-0.4,0.1-0.9,0.1-1.3
		C269.5,109,269.4,108.6,269.4,108.3L269.4,108.3z M265.3,125.4l0.1-0.1h-0.1V125.4z"/>
	<path class="st2" d="M309.3,155.4c0.7,0.4,1,1.2,0.9,2c0,0.5-0.1,1-0.3,1.5c-0.4,1-1.7,2.5-3.9,4.5c-2.3,2-4.7,3.9-7.2,5.5
		c-1.8,1.3-3.9,2.3-6.1,2.9c-0.6,0.3-1.3,0.5-2.1,0.6c-0.5,0.1-1,0.2-1.5,0.3c-1.5,0.3-3,0.5-4.5,0.5c-1.7,0-3.4-0.2-5.1-0.5
		c-2.8-0.2-5.4-1.5-7.1-3.7c-0.9-1.1-1.6-2.4-2.1-3.8l-0.5-2l0.2-4.5l0.6-0.9c0.1-1.5,0.6-2.9,1.4-4.2c1-1.6,2.1-3,3.3-4.5
		c1-1.2,2.3-2.2,3.7-3l4.6-0.6c2.8-0.2,5.2,2,5.4,4.8c0,0.1,0,0.1,0,0.2c0,0.6-0.1,1.2-0.3,1.7c-0.5,1.6-1.3,3.1-2.3,4.4
		c-1.1,1.6-2.5,3-4.1,4.1c-2.3,1.9-3.6,3-4,3.3c-1.4,1.2-2.1,1.8-2.2,1.9c0.1,0.3,0.2,0.6,0.3,0.9c0.2,0.5,0.6,1,1.1,1.2
		c0.4,0.1,0.9,0.2,1.6,0.4c0.6,0.2,1.2,0.4,1.7,0.6c1,0.5,2.1,0.7,3.2,0.7c1,0,2.1-0.1,3.1-0.4c2.6-0.4,5.2-1.3,7.5-2.6
		c2.9-1.5,5.5-3.3,8-5.4c2.1-1.6,3.8-3.6,5.2-5.8C308.3,155.1,308.7,155,309.3,155.4z M273.8,168.6c0.1,0,0.2,0,0.3,0.1
		C274.1,168.5,274,168.5,273.8,168.6z M274.6,168.9h-0.2l0.5,0.8C275.1,169.3,275,169,274.6,168.9z M278.2,155
		c-1,1.8-1.7,3.8-2.1,5.8c1.5-1.2,2.8-2.5,4.1-3.8c0.2-0.5,0.5-1.1,0.9-1.8c0.4-0.7,0.7-1.4,1-2.1c0.8-2,1.1-3.3,0.7-3.8
		c-0.2,0.1-0.5,0.1-0.7,0.1C280.7,151.1,279.4,153,278.2,155z M276.5,168.7c0-0.1-0.1-0.1-0.2,0c0,0,0,0,0,0l0.3,0.1L276.5,168.7z
		 M286.3,147.9l0.2-0.1l-0.1-0.5C286.1,147.5,286.1,147.7,286.3,147.9L286.3,147.9z"/>
	<path class="st2" d="M350.2,156.4c0.6,0,1.2,0.2,1.7,0.5c0.5,0.3,0.7,0.8,0.7,1.3c0,0.5-0.2,1-0.6,1.4c-0.8,1.2-3.5,4-8.1,8.3
		c-3.2,3.2-6.8,6.2-10.6,8.8c-0.2,0.1-0.5,0.2-0.7,0.3c-0.5,0.3-1,0.7-1.3,1.1l-0.2-0.1c-0.2,0.4-0.4,1-0.7,1.7
		c-0.3,0.7-0.5,1.4-0.5,2.2c-0.1,1-0.3,1.9-0.7,2.8c-0.3,0.8-0.5,1.7-0.6,2.6c-0.6,0.9-1,1.8-1.3,2.8c-0.3,1.1-0.6,2-0.8,2.6
		c0,0.1,0,0.3-0.1,0.4c-0.1,0.1-0.2,0.2-0.2,0.4c0,0.4,0,0.8,0.1,1.2c-0.3,0.2-0.7,0.4-0.9,0.7l0.1,1.7c-1.4,5-3.7,9.8-6.6,14.1
		c-0.5,0.7-1.1,1.7-1.8,3.1c-0.3,0.5-0.7,1-1.1,1.4c0-0.1,0-0.2-0.1-0.3c0-0.1-0.2-0.1-0.4,0.1l0.5,0.2c-0.5,0.6-0.9,1.1-1.3,1.7
		c-0.4,0.6-0.9,1.3-1.4,2c-0.2,0.2-0.5,0.3-0.8,0.4l-0.6,1.2l-3.2,3.1c-1.8,2.3-4.2,4-7,5c-1.1,0.5-2.4,0.8-3.7,0.8
		c-0.4,0-1.4,0.1-3.1,0.2c-0.6-0.2-1.2-0.5-1.7-0.8l-1.5-0.8c-0.9-0.9-1.5-2-2-3.1c-0.5-1.2-0.8-2-0.9-2.4l-0.1-3
		c0-1.3,0.1-2.5,0.5-3.7c0.1-0.4,0.4-1.1,0.7-2.3c0.3-1,0.7-1.9,1.2-2.8c0.5-0.7,0.9-1.4,1.3-2.1c0.4-0.7,0.8-1.4,1.3-2.1
		c0.3-0.4,0.5-0.8,0.5-1.2c0.1-0.4,0.2-0.7,0.3-1.1c1.5-1.7,2.8-3.4,3.9-5c1-1.4,2.1-2.6,3.4-3.7l3-2.8c0.7-0.8,1.5-1.6,2.4-2.4
		c1.4-1.3,2.8-2.6,4.4-3.7c0.6-0.4,1.2-0.9,1.6-1.5c1.4-1.7,3.1-3.1,5-4.3c2.1-1.5,3.7-2.7,4.8-3.6c1-2.9,1.5-5.9,1.6-8.9
		c-0.6,0.3-1.2,0.8-1.7,1.3c-0.5,0.5-1.1,1-1.7,1.4l-1.4,1.1h-0.2c-1,1.2-2.3,2.1-3.8,2.7c-0.2,0.1-0.5,0.2-0.9,0.4
		c-0.4,0.2-0.8,0.3-1.2,0.4c-0.3,0-0.7,0.1-1,0.2l-0.9,0.3c-1-0.3-2-0.5-3-0.6c-1,0-1.9-0.3-2.6-0.9c-1.1-0.8-1.7-2.1-1.7-3.5
		c0-0.4-0.1-0.8-0.2-1.2s-0.2-0.8-0.2-1.2c0-0.4,0.1-0.9,0.3-1.3c0.1-0.3,0-0.7-0.1-1c-0.1-0.4-0.1-0.9,0.2-1.3
		c0.5-0.9,0.9-1.9,1-2.9c0.4-1.9,1-3.6,1.9-5.3c0.8-1.9,1.9-3.5,3.3-5c0.7-0.6,1.7-1,2.6-0.9c1,0,2,0.3,2.7,1c0.6,0.4,0.9,1.3,0.6,2
		c-0.3,0.6-1,1.8-1.9,3.6c-0.9,1.6-1.6,3.4-2.2,5.2c-0.5,1.6-0.7,3.3-0.7,5c0,0.8,0,1.6,0.1,2.4c0,0.3,0.2,0.7,0.3,0.9l0.3,0.5
		c0.3-0.2,0.9-0.5,1.8-1c0.8-0.5,1.6-1.1,2.1-1.9c0.3-0.5,0.7-0.9,1.1-1.2c0.4-0.3,0.8-0.6,1.2-0.9c0.7-0.5,1.2-1.2,1.5-1.9
		c0.3-0.6,0.7-1.1,1.1-1.6c0.4-0.5,0.8-1,1.1-1.6c0.9-1.8,2.4-3.2,4.2-3.9l1.4,0.4l0.8-0.9c0.6,0.2,1.2,0.6,1.7,1
		c0.2,0,0.3-0.1,0.5-0.2c0.3-0.1,0.6-0.2,0.9-0.3c0.3,0.2,0.6,0.3,0.9,0.4l0.7,0.5c0,0.2,0.1,0.4,0.2,0.5c0.1,0.2,0.2,0.3,0.2,0.5
		c-0.2,0.8-0.4,1.6-0.5,2.4c-0.1,0.9-0.1,1.5-0.1,1.8c-0.1,0.9-0.4,1.8-0.7,2.7c0.1,0.8,0,1.5-0.2,2.3c-0.2,0.8-0.3,1.6-0.2,2.4
		c0.1,0.2,0.2,0.2,0.4,0.2c0.2,0,0.4-0.1,0.5-0.3c2.5-1.9,5.4-4.2,8.8-7.2c2.4-1.9,4.5-4.1,6.4-6.5
		C348.7,156.6,349.4,156.3,350.2,156.4z M321.4,185.8c-0.1,0-0.3,0-0.4-0.1c-0.1,0-0.2,0-0.3,0.1c-0.8,0.4-1.6,0.9-2.3,1.5l-6,5.4
		c-0.9,0.7-1.4,1.1-1.5,1.2c-0.2,0.2-0.5,0.4-0.7,0.5c-0.3,0.2-0.6,0.5-0.8,0.9c-0.4,0.7-0.8,1.3-1.4,1.9c-0.6,0.6-1.1,1.2-1.5,2
		l-0.7,0.2c-0.1,0.5-0.4,1-0.8,1.4c-0.8,0.9-1.3,1.5-1.5,1.6c-0.5,0.9-1.4,2.2-2.6,3.9l-1.9,2.9c-0.8,1-1.4,2.1-1.8,3.3
		c-0.5,1.2-0.7,1.9-0.8,2.1v0.3c0,0.4-0.2,0.7-0.5,0.9c-0.3,0.3-0.5,0.5-0.5,0.7c0,0.3,0,0.6,0.1,0.9c0.1,0.2,0.1,0.5,0,0.7
		c-0.3,0.9-0.5,1.8-0.5,2.7c0.1,1.6,0.4,3.1,1,4.5c0.4,0.2,0.9,0.3,1.4,0.4l0.8-0.6c2.8-1.6,5.3-3.7,7.4-6.1l1.5-1.7
		c1.6-2,2.6-3.2,2.9-3.7l4.9-7.3c-0.1-0.2-0.1-0.4-0.1-0.6l1.7-4.3c0.2-0.5,0.6-1.3,1-2.1c0.4-0.7,0.6-1.5,0.7-2.3l0.5-1.6
		c0.1-0.2,0.3-0.9,0.8-1.9c0.4-1,0.7-2.1,0.8-3.2c0-0.4,0.1-0.7,0.3-1C321.3,188.2,321.5,187,321.4,185.8z M321.6,185.4l-0.1,0.4
		C321.6,185.6,321.7,185.5,321.6,185.4L321.6,185.4z M323.9,161.3h-0.1l0.1,0.1V161.3z"/>
	<path class="st3" d="M78.2,250.8c1.2-0.2,2.4-0.3,3.6-0.3c2.4,0,4.2,0.6,5.3,1.6c1.3,1.2,2,2.9,1.9,4.7c0.1,1.9-0.6,3.7-1.9,5.1
		c-1.2,1.2-3.2,1.9-5.8,1.9c-1,0-2.1,0-3.1-0.1L78.2,250.8z M79.9,262.3c0.6,0.1,1.1,0.1,1.7,0.1c3.6,0,5.6-2,5.6-5.5
		c0-3.1-1.7-5-5.3-5c-0.7,0-1.3,0-2,0.2L79.9,262.3z"/>
	<path class="st3" d="M104.4,257.5h-5.1v4.7h5.7v1.4h-7.4v-13h7.1v1.4h-5.4v4.1h5.1V257.5z"/>
	<path class="st3" d="M113.4,261.6c0.9,0.5,1.9,0.8,3,0.9c1.7,0,2.8-0.9,2.8-2.2s-0.7-1.9-2.5-2.6c-2.1-0.8-3.5-1.9-3.5-3.7
		c0-2,1.7-3.5,4.2-3.5c1,0,2,0.2,2.9,0.6l-0.5,1.4c-0.8-0.4-1.6-0.6-2.5-0.6c-1.8,0-2.5,1.1-2.5,2c0,1.2,0.8,1.8,2.6,2.5
		c2.2,0.9,3.3,1.9,3.3,3.8s-1.5,3.8-4.6,3.8c-1.1,0-2.3-0.3-3.3-0.9L113.4,261.6z"/>
	<path class="st3" d="M131.3,250.6v13h-1.7v-13L131.3,250.6z"/>
	<path class="st3" d="M150.7,263.1c-1.3,0.5-2.6,0.7-4,0.7c-1.8,0.1-3.6-0.5-4.9-1.7c-1.2-1.3-1.9-3.1-1.8-4.9
		c0-3.9,2.7-6.7,7.1-6.7c1.1,0,2.2,0.2,3.3,0.6l-0.4,1.4c-0.9-0.4-1.9-0.6-2.9-0.6c-2.7-0.2-5.1,1.8-5.3,4.5c0,0.3,0,0.5,0,0.8
		c0,3.3,2,5.2,5.1,5.2c0.8,0,1.5-0.1,2.3-0.4v-3.9h-2.7v-1.4h4.3V263.1z"/>
	<path class="st3" d="M159.7,263.7v-13h1.9l4.2,6.6c0.9,1.4,1.7,2.8,2.4,4.2l0,0c-0.2-1.7-0.2-3.3-0.2-5.4v-5.4h1.6v13h-1.7
		l-4.2-6.6c-0.9-1.4-1.7-2.8-2.4-4.3h-0.1c0.1,1.6,0.1,3.2,0.1,5.4v5.6H159.7z"/>
	<path class="st3" d="M185.8,257.5h-5.1v4.7h5.7v1.4H179v-13h7.1v1.4h-5.4v4.1h5.1L185.8,257.5z"/>
	<path class="st3" d="M195,250.8c1.1-0.2,2.2-0.3,3.2-0.3c1.4-0.1,2.7,0.2,3.8,1.1c0.7,0.6,1,1.5,1,2.5c0,1.5-1,2.9-2.5,3.3v0.1
		c1.1,0.5,1.8,1.5,1.9,2.6c0.2,1.2,0.6,2.4,1,3.6h-1.8c-0.4-1-0.7-2-0.9-3.1c-0.4-1.8-1.1-2.5-2.6-2.5h-1.6v5.6H195V250.8z
		 M196.7,256.7h1.7c1.8,0,3-1,3-2.5c0-1.7-1.2-2.4-3-2.4c-0.6,0-1.1,0-1.7,0.1L196.7,256.7z"/>
	<path class="st3" d="M230.7,263.7c-0.4-0.4-0.7-0.7-1.2-1.3c-1,1-2.4,1.5-3.8,1.5c-2,0.2-3.8-1.4-4-3.4c0-0.1,0-0.2,0-0.3
		c0-1.7,1-3.1,2.6-3.8v-0.1c-0.7-0.8-1-1.7-1.1-2.7c0-1.8,1.4-3.2,3.1-3.2c0.1,0,0.1,0,0.2,0c1.5-0.1,2.8,1,2.9,2.5
		c0,0.1,0,0.2,0,0.2c0,1.4-0.8,2.4-2.9,3.5v0.1c1.1,1.3,2.4,2.7,3.2,3.6c0.7-1.2,1.1-2.5,1.3-3.8h1.6c-0.2,1.7-0.8,3.4-1.9,4.8
		c0.7,0.7,1.4,1.5,2.2,2.3L230.7,263.7z M228.6,261.4c-0.8-0.9-2.2-2.4-3.7-4.1c-1,0.5-1.6,1.5-1.7,2.6c0,1.4,1.1,2.6,2.5,2.6
		c0.1,0,0.1,0,0.2,0C226.9,262.6,227.9,262.2,228.6,261.4L228.6,261.4z M224.6,253.5c0,0.9,0.4,1.7,1,2.3c1.3-0.8,2.2-1.4,2.2-2.6
		c0.1-0.8-0.5-1.6-1.4-1.7c0,0-0.1,0-0.1,0c-0.9,0-1.7,0.8-1.7,1.7C224.6,253.4,224.6,253.4,224.6,253.5L224.6,253.5z"/>
	<path class="st3" d="M262.3,257.9c-0.1-1.8-0.2-4-0.2-5.6H262c-0.5,1.5-1,3.1-1.7,4.9l-2.3,6.3h-1.3l-2.1-6.2
		c-0.6-1.8-1.1-3.5-1.5-5.1l0,0c0,1.6-0.1,3.8-0.2,5.8l-0.4,5.6h-1.6l0.9-13h2.2l2.2,6.3c0.5,1.6,1,3,1.3,4.4h0.1
		c0.3-1.3,0.8-2.7,1.4-4.4l2.3-6.3h2.2l0.8,13h-1.7L262.3,257.9z"/>
	<path class="st3" d="M275.2,259.6l-1.4,4.1h-1.8l4.5-13h2l4.5,13h-1.8l-1.4-4.1H275.2z M279.5,258.2l-1.3-3.8
		c-0.3-0.9-0.5-1.6-0.7-2.4l0,0c-0.2,0.8-0.4,1.6-0.7,2.4l-1.3,3.8H279.5z"/>
	<path class="st3" d="M291.5,250.6h1.7v6.3h0.1c0.4-0.5,0.7-1,1-1.4l4-4.9h2.1l-4.8,5.5l5.1,7.5h-2l-4.3-6.4l-1.2,1.4v5h-1.7
		L291.5,250.6z"/>
	<path class="st3" d="M315.2,257.5h-5.1v4.7h5.7v1.4h-7.4v-13h7.1v1.4h-5.4v4.1h5.1V257.5z"/>
	<path class="st3" d="M324.5,250.8c1.1-0.2,2.2-0.3,3.2-0.3c1.4-0.1,2.7,0.2,3.8,1.1c0.7,0.6,1,1.5,1,2.5c0,1.5-1,2.9-2.5,3.3v0.1
		c1.1,0.5,1.8,1.5,1.9,2.6c0.2,1.2,0.6,2.4,1,3.6h-1.8c-0.4-1-0.7-2-0.9-3.1c-0.4-1.8-1.1-2.5-2.6-2.5h-1.6v5.6h-1.7L324.5,250.8z
		 M326.1,256.7h1.7c1.8,0,3-1,3-2.5c0-1.7-1.2-2.4-3-2.4c-0.6,0-1.1,0-1.7,0.1L326.1,256.7z"/>
	<ellipse class="st4" cx="209.4" cy="190.4" rx="190.7" ry="181.9"/>
	<ellipse class="st4" cx="203.2" cy="190.4" rx="190.7" ry="181.9"/>
</g>
<g id="Layer_2">
	<ellipse class="st5" cx="207.2" cy="188.7" rx="192.8" ry="183.9"/>
	<ellipse class="st5" cx="201" cy="188.7" rx="192.8" ry="183.9"/>
	<g>
		<path class="st6" d="M71.2,194.2h7.5v40.8H91v6.8H71.2V194.2z"/>
		<path class="st6" d="M98.2,205.6c0-7.6,4-12,11.4-12c7.3,0,11.4,4.4,11.4,12v24.7c0,7.6-4,12-11.4,12c-7.3,0-11.4-4.4-11.4-12
			V205.6z M105.6,230.8c0,3.4,1.5,4.7,3.9,4.7c2.4,0,3.9-1.3,3.9-4.7v-25.7c0-3.4-1.5-4.7-3.9-4.7c-2.4,0-3.9,1.3-3.9,4.7V230.8z"/>
		<path class="st6" d="M137,207.3h-0.1v34.5h-6.7v-47.6h9.4l7.5,28.5h0.1v-28.5h6.7v47.6h-7.7L137,207.3z"/>
		<path class="st6" d="M175,215.2h10.5v15.1c0,7.6-3.8,12-11.1,12c-7.3,0-11.1-4.4-11.1-12v-24.7c0-7.6,3.8-12,11.1-12
			c7.3,0,11.1,4.4,11.1,12v4.6h-7.1v-5.1c0-3.4-1.5-4.7-3.9-4.7c-2.4,0-3.9,1.3-3.9,4.7v25.7c0,3.4,1.5,4.6,3.9,4.6
			c2.4,0,3.9-1.2,3.9-4.6V222H175V215.2z"/>
		<path class="st6" d="M210.5,241.7c-0.4-1.2-0.7-2-0.7-5.8v-7.5c0-4.4-1.5-6.1-4.9-6.1h-2.6v19.4h-7.5v-47.6h11.3
			c7.7,0,11.1,3.6,11.1,10.9v3.7c0,4.9-1.6,8-4.9,9.6v0.1c3.7,1.6,5,5.1,5,10.1v7.3c0,2.3,0.1,4,0.8,5.8H210.5z M202.4,201v14.6h2.9
			c2.8,0,4.5-1.2,4.5-5v-4.7c0-3.4-1.2-4.9-3.8-4.9H202.4z"/>
		<path class="st6" d="M226.8,194.2h7.5v47.6h-7.5V194.2z"/>
		<path class="st6" d="M244.2,194.2h11.8c7.5,0,11.1,4.1,11.1,11.8V230c0,7.6-3.7,11.8-11.1,11.8h-11.8V194.2z M251.7,201v34h4.2
			c2.4,0,3.8-1.2,3.8-4.6v-24.7c0-3.4-1.4-4.6-3.8-4.6H251.7z"/>
		<path class="st6" d="M287.7,215.2h10.5v15.1c0,7.6-3.8,12-11.1,12s-11.1-4.4-11.1-12v-24.7c0-7.6,3.8-12,11.1-12s11.1,4.4,11.1,12
			v4.6h-7.1v-5.1c0-3.4-1.5-4.7-3.9-4.7c-2.4,0-3.9,1.3-3.9,4.7v25.7c0,3.4,1.5,4.6,3.9,4.6c2.4,0,3.9-1.2,3.9-4.6V222h-3.4V215.2z"
			/>
		<path class="st6" d="M315.1,214.2h10.3v6.8h-10.3v13.9H328v6.8h-20.4v-47.6H328v6.8h-12.9V214.2z"/>
	</g>
	<g>
		<path class="st7" d="M71.5,249.8c1-0.2,2.3-0.3,3.6-0.3c2.5,0,4.2,0.6,5.4,1.6c1.2,1.1,1.9,2.6,1.9,4.7c0,2.1-0.7,3.9-1.9,5.1
			c-1.2,1.2-3.3,1.9-5.9,1.9c-1.2,0-2.2-0.1-3.1-0.2V249.8z M73.2,261.4c0.4,0.1,1.1,0.1,1.7,0.1c3.7,0,5.7-2,5.7-5.6
			c0-3.1-1.8-5.1-5.4-5.1c-0.9,0-1.6,0.1-2,0.2V261.4z"/>
		<path class="st7" d="M98,256.6h-5.2v4.7h5.8v1.4h-7.5v-13.2h7.2v1.4h-5.5v4.2H98V256.6z"/>
		<path class="st7" d="M107,260.7c0.8,0.5,1.9,0.9,3.1,0.9c1.8,0,2.8-0.9,2.8-2.2c0-1.2-0.7-1.9-2.5-2.6c-2.2-0.8-3.5-1.9-3.5-3.7
			c0-2.1,1.7-3.6,4.3-3.6c1.4,0,2.3,0.3,2.9,0.6l-0.5,1.4c-0.4-0.2-1.3-0.6-2.5-0.6c-1.8,0-2.5,1.1-2.5,2c0,1.2,0.8,1.8,2.6,2.5
			c2.2,0.9,3.4,1.9,3.4,3.9c0,2-1.5,3.8-4.6,3.8c-1.3,0-2.7-0.4-3.4-0.8L107,260.7z"/>
		<path class="st7" d="M125.2,249.6v13.2h-1.7v-13.2H125.2z"/>
		<path class="st7" d="M144.8,262.2c-0.8,0.3-2.3,0.7-4.1,0.7c-2,0-3.7-0.5-5-1.7c-1.1-1.1-1.9-2.9-1.9-4.9c0-3.9,2.7-6.8,7.2-6.8
			c1.5,0,2.7,0.3,3.3,0.6l-0.4,1.4c-0.7-0.3-1.6-0.6-2.9-0.6c-3.2,0-5.3,2-5.3,5.3c0,3.3,2,5.3,5.1,5.3c1.1,0,1.9-0.2,2.3-0.4v-3.9
			h-2.7v-1.4h4.4V262.2z"/>
		<path class="st7" d="M153.9,262.8v-13.2h1.9l4.3,6.7c1,1.5,1.8,2.9,2.4,4.3l0,0c-0.2-1.8-0.2-3.4-0.2-5.4v-5.5h1.6v13.2h-1.7
			l-4.2-6.7c-0.9-1.5-1.8-3-2.5-4.4l-0.1,0c0.1,1.7,0.1,3.2,0.1,5.4v5.6H153.9z"/>
		<path class="st7" d="M180.3,256.6h-5.2v4.7h5.8v1.4h-7.5v-13.2h7.2v1.4h-5.5v4.2h5.2V256.6z"/>
		<path class="st7" d="M189.6,249.8c0.9-0.2,2.1-0.3,3.3-0.3c1.8,0,3,0.3,3.8,1.1c0.7,0.6,1,1.5,1,2.5c0,1.7-1.1,2.9-2.5,3.4v0.1
			c1,0.4,1.6,1.3,2,2.7c0.4,1.8,0.7,3.1,1,3.6h-1.8c-0.2-0.4-0.5-1.5-0.9-3.1c-0.4-1.8-1.1-2.5-2.7-2.6h-1.6v5.7h-1.7V249.8z
			 M191.3,255.8h1.8c1.8,0,3-1,3-2.5c0-1.7-1.2-2.4-3.1-2.5c-0.8,0-1.4,0.1-1.7,0.2V255.8z"/>
		<path class="st7" d="M225.7,262.8c-0.4-0.4-0.7-0.7-1.2-1.3c-1.1,1.1-2.4,1.5-3.9,1.5c-2.6,0-4.1-1.7-4.1-3.7c0-1.8,1.1-3,2.6-3.8
			v-0.1c-0.7-0.9-1.1-1.8-1.1-2.8c0-1.6,1.2-3.2,3.4-3.2c1.7,0,2.9,1.1,2.9,2.8c0,1.4-0.8,2.5-2.9,3.5v0.1c1.1,1.3,2.4,2.7,3.2,3.7
			c0.6-0.9,1-2.2,1.3-3.8h1.6c-0.4,2.1-0.9,3.7-1.9,4.9c0.7,0.7,1.4,1.5,2.2,2.3H225.7z M223.6,260.5c-0.8-0.9-2.3-2.5-3.7-4.1
			c-0.7,0.4-1.7,1.3-1.7,2.7c0,1.5,1.1,2.7,2.7,2.7C222,261.7,222.9,261.2,223.6,260.5z M219.5,252.5c0,0.9,0.4,1.7,1,2.4
			c1.3-0.8,2.2-1.5,2.2-2.6c0-0.8-0.5-1.7-1.5-1.7C220.1,250.6,219.5,251.5,219.5,252.5z"/>
		<path class="st7" d="M257.6,257c-0.1-1.8-0.2-4-0.2-5.7h-0.1c-0.5,1.5-1,3.2-1.7,5l-2.3,6.4H252l-2.1-6.3
			c-0.6-1.9-1.2-3.6-1.5-5.1h0c0,1.6-0.1,3.8-0.3,5.8l-0.4,5.6h-1.6l0.9-13.2h2.2l2.3,6.4c0.6,1.6,1,3.1,1.3,4.4h0.1
			c0.3-1.3,0.8-2.8,1.4-4.4l2.4-6.4h2.2l0.8,13.2H258L257.6,257z"/>
		<path class="st7" d="M270.7,258.6l-1.4,4.1h-1.8l4.5-13.2h2.1l4.5,13.2h-1.8l-1.4-4.1H270.7z M275.1,257.3l-1.3-3.8
			c-0.3-0.9-0.5-1.6-0.7-2.4h0c-0.2,0.8-0.4,1.6-0.7,2.4l-1.3,3.8H275.1z"/>
		<path class="st7" d="M287.1,249.6h1.7v6.3h0.1c0.4-0.5,0.7-1,1-1.4l4.1-4.9h2.1l-4.8,5.6l5.2,7.6h-2l-4.4-6.5l-1.3,1.4v5h-1.7
			V249.6z"/>
		<path class="st7" d="M311.2,256.6H306v4.7h5.8v1.4h-7.5v-13.2h7.2v1.4H306v4.2h5.2V256.6z"/>
		<path class="st7" d="M320.5,249.8c0.9-0.2,2.1-0.3,3.3-0.3c1.8,0,3,0.3,3.8,1.1c0.7,0.6,1,1.5,1,2.5c0,1.7-1.1,2.9-2.5,3.4v0.1
			c1,0.4,1.6,1.3,2,2.7c0.4,1.8,0.7,3.1,1,3.6h-1.8c-0.2-0.4-0.5-1.5-0.9-3.1c-0.4-1.8-1.1-2.5-2.7-2.6h-1.6v5.7h-1.7V249.8z
			 M322.2,255.8h1.8c1.8,0,3-1,3-2.5c0-1.7-1.2-2.4-3.1-2.5c-0.8,0-1.4,0.1-1.7,0.2V255.8z"/>
	</g>
	<path class="st8" d="M248,160.6c1.1-1.3,4.2-3.5,5.3-4.7c1.3-1.5,2.6-3.1,3.5-4.9c0.9-2.1,1.2-4.4,1.9-6.5s2-4.3,4.1-5.1
		c1.7-0.6,3.7-0.1,4.9,1.2s1.6,3.3,0.9,5c-1.3,3.1-5.5,4.3-6.4,7.5c-0.8,2.6,1.2,5.5,3.8,6.5s5.5,0.5,8.1-0.3
		c7.7-2.5,14.5-8,18.4-15.1c0.6-1.1,2.4-0.6,2.9,0.5c0.5,1.1,0.1,2.4-0.4,3.6c-1,2.3-2.2,4.5-2.3,7c-0.1,2.5,1.6,5.2,4,5.3
		c2.3,0.1,3.9-2,5.2-3.8c1-1.4,2-2.9,3-4.3c0.6-0.9,1.3-1.9,2.3-2.4s2.4-0.3,2.9,0.7c0.3,0.6,0.2,1.3,0.1,2
		c-0.4,3.4-0.9,6.8-1.3,10.2c6.9-5.4,12.7-12.1,17-19.7c0.5-0.8,1.9-0.3,2.1,0.7s-0.4,1.8-0.9,2.6c-4.3,6.3-8.9,12.8-15.5,16.8
		c-2.9,1.7-3.2,5.6-3.6,8.9c-1.1,8.4-4.8,16.3-9,23.7c-2.4,4.2-5,8.4-8.9,11.2c-2.4,1.7-5.7,2.8-8.2,1.3c-1-0.6-1.8-1.5-2.9-1.6
		c-1.2-0.2-1.7-1.7-1.8-2.9c-0.4-6.7,2.5-13.2,6.7-18.4c4.2-5.2,9.5-9.4,14.6-13.7c1.7-1.4,3.5-2.9,4.7-4.8c1.2-1.9,1.8-4.3,1-6.4
		c-0.2-0.5-0.8-1-1.2-0.6c-1,1.2-2.6,1.7-4,2.2c-2.9,1-6.4,1.7-8.7-0.3c-2.3-2-1.9-5.7-1.3-8.7c-2.4,1-4.3,2.9-6.3,4.5
		c-3.8,3-8.5,5.1-13.3,5c-4.8-0.1-9.8-2.8-11.7-7.2c-2.2,4.3-15.5,12.2-18.4,10.4 M281.2,202c0.8,1.5,2.9,1.9,4.5,1.3
		c1.6-0.6,2.8-1.9,3.9-3.2c6.8-8.2,11.6-18.1,13.9-28.5c-4.7,3.6-9.4,7.3-13.4,11.6c-4,4.4-7.4,9.5-8.9,15.2
		C280.8,199.6,280.6,200.9,281.2,202 M264.8,143.5c-0.7-0.3-1.6,0.1-2.1,0.7c-0.5,0.6-0.7,1.5-0.9,2.3c-0.1,0.6-0.3,1.3-0.4,1.9
		c-0.1,0.3-0.1,0.7,0.1,0.8c0.3,0.2,0.6,0,0.9-0.2c0.4-0.3,0.8-0.6,1.2-0.9c0.8-0.6,1.6-1.2,2-2.1
		C265.9,145.1,265.7,143.9,264.8,143.5"/>
	<path class="st8" d="M245.1,162c-0.7,0.2-2.9,2.2-3.6,2.3c3.8-2.9,8-5.9,12.2-8.7c-2.4,3-5.2,5.8-8.3,8.2c-1.3,1-2.8,2-4.4,2.2
		c-2.7,0.3-5.2-1.4-6.6-3.7c-1.4-2.3-1.9-5-2.3-7.6c-5.5,5-11.5,9.5-17.7,13.6c-2.3,1.5-2.1,4.8-1.8,7.5c0.3,3.1,0.4,6.4-1,9.1
		c-1.4,2.8-4.6,4.9-7.6,4.1c-3.2-0.8-4.9-4.6-4.3-7.9c0.6-3.2,2.8-5.9,5.3-8.1c2.2-1.9,3.2-5,3.2-8s-0.9-5.8-1.7-8.7
		c-4.7,4.1-10.2,7.2-16.1,9c-2.4,0.8-5.6,1.2-7.2-0.9c-0.9-1.2-0.9-2.7-0.9-4.2c0-2.9,0.7-7.6-0.1-8.4s-6.9,6-9.3,10
		c-1.5,2.5-3.2,5.5-6.1,5.7c0-4.2,1.1-8.3,3-12.1c-6.9,6.7-13.8,13.3-20.6,20c0.5-3.4,1.7-1.3,1.9-1.9c-1.8,13.9-8.5,28.1-18.6,37.9
		c-3.1,3-7.8,5.9-11.5,3.6c-3.9-2.4-3.1-8.3-1.3-12.5c3.4-7.9,8.9-14.9,15.7-20c5.3-4,12-8,12.2-14.6c0-1-0.1-1.6,0.2-2.8
		c0.5-2.3,1-2.6,1.9-2.3c1.4-0.7,1.4,4.3,0,6.5c0.1-2.3,0.2-4.1,0.3-6.4c-1.8,0.7-5.4,2.7-8,4.1c-2.6,1.5-6.2,2.2-8.5,0.3
		c-2.7-2.3-2-6.5-1.1-9.9c0.4-1.4,0.8-2.8,1.1-4.2c0.4-1.5,0.9-3.1,2.3-3.8c1.4-0.7,3.4,0.9,2.6,2.1c-1.9,3-3,6.5-3.3,10
		c-0.1,1.7,0.4,3.9,2.1,4.1c0.6,0.1,1.2-0.2,1.8-0.4c3.2-1.5,6.1-3.9,8.1-6.8c0.9-1.2,1.6-2.6,2.9-3.4c1.3-0.8,3.3-0.7,4,0.7
		c0.4,0.8,0.2,1.7,0.1,2.5c-0.7,3.6-1.3,7.2-2,10.7c7.1-4.2,12.7-10.9,15.6-18.6c0.7-1.9,3.8-1.5,4.8,0.2c1,1.7,0.6,3.9,0.2,5.8
		c-0.7,0.6-0.5-0.4,0-0.2c1.4-4.2,6.1-6.9,10.2-8.8c1-0.5,2.3-0.8,3,0c0.3,0.4,0.4,0.9,0.5,1.4c0.6,4,0.1,7.4,0.1,11.7v0.7
		c0.3,0.7,0,0.7,0.9,1.5c8.6-0.8,16.5-6.4,20-14.3c0.9-2.1,2.9-4,5.2-3.9c2.3,0.1,3.9,3.5,2.1,4.9c-4.6,3.6-4.2,10.6-3.3,16.4
		c0.1,0.6,0.3,1.4,1,1.5c0.4,0,0.7-0.2,1-0.4c4.6-3.3,9.1-6.7,13.7-10c1.4-1,2.8-2,3.7-3.5c1.2-1.9,1.4-4.3,1.6-6.5
		c1.1-11.6,4.9-23,11-32.9c2.4-4,5.3-7.9,9.3-10.3c1.3-0.8,3-1.4,4.2-0.5c1.1,0.9,1.1,2.6,0.8,4c-2,12.4-7.3,24.2-15.1,33.9
		c-0.9,1.6-1.9,3.2-2.8,4.8c-1.8,3.1-3.7,6.4-3.5,10c0.1,3.6,3.2,7.3,6.7,6.7 M145.7,179.2c0.1-0.5-0.7-0.4-1-0.1
		c-1.8,1.4-3.6,2.8-5.3,4.3c-5.6,4.5-11.4,9.2-14.8,15.5c-1.4,2.6-2.4,5.3-2.9,8.2c-0.1,0.7-0.2,1.5,0.2,2c0.6,0.8,1.8,0.6,2.7,0.2
		c4.3-1.6,6.1-2.9,7.9-4.8c0.4-0.3,1.3-1.3,1.6-1.7c0.4-0.4,0.6-0.7,0.8-1.1c0.2-0.3,0.5-0.7,0.8-1.3
		C139.9,193.9,143.3,186.7,145.7,179.2 M254,111.8c0.1-0.8,0.1-1.8-0.5-2.3c-6.3,9.6-11.2,20-14.6,31c-0.4,1.2-0.7,2.4-0.7,3.7
		c2-2.9,4-5.9,6-8.8c1.2-1.8,2.5-3.7,3.6-5.6C251,124.3,253.1,118.1,254,111.8 M205.4,184.7c1.7-2.4,2.7-5.2,3-8.1
		c0.1-1-0.3-2.3-1.3-2.2c-0.4,0.1-0.6,0.3-0.9,0.6c-1.3,1.4-2.2,3.2-2.9,5c-0.6,1.7-0.9,3.9,0.5,5c0.3,0.2,0.6,0.4,0.9,0.3
		C205,185.2,205.2,185,205.4,184.7"/>
	<path class="st8" d="M91.8,149.9c3.1-1.7,6.5-3.6,8-6.9c4.4-9.3,9.4-18.2,14.8-26.9c0.7-1.2,1.5-2.4,2.7-3.2s2.7-1.1,3.9-0.4
		c1.8,1.1,1.8,3.7,1.6,5.8c-0.7,5.5-1.3,10.9-2,16.4c-0.1,0.6,0.2,1.5,0.8,1.2c2-0.8,4.1-1.5,6.2-2c0.9-0.2,2-0.4,2.8,0.1
		c0.8,0.5,1,1.9,0.1,2.3c-2.6,1.2-5.2,2.3-7.8,3.5c-1.4,0.6-2.9,1.5-3.1,3c-1.5,13.1-3.5,26.1-6,39.1c-0.2,1.2-0.5,2.4-1.4,3.3
		c-0.9,0.8-2.6,0.9-3.1-0.2c-0.3-0.5-0.2-1.2-0.1-1.8c2.1-13.5,4.2-27,6.2-40.5c-3.5,1.6-7,3.1-10.4,4.7c-1.5,0.7-3.1,1.4-4.4,2.5
		c-1.7,1.4-2.7,3.5-3.6,5.4c-4.4,9.1-8.2,18.6-11.5,28.2c-0.2,0.7-1.2,0.9-1.8,0.5s-1-1.1-1.2-1.7c-1-3.4,0.6-7,2.1-10.2
		c3.1-6.7,6.3-13.5,10.2-19.8c-6.6,3.6-13.2,7.1-19.8,10.6c-0.9,0.5-2,1-3,0.7c-1-0.3-1.5-1.9-0.6-2.4
		C78.2,157.3,85,153.6,91.8,149.9 M113.3,139.4c1.2-0.6,2.4-1.3,3.1-2.4c0.5-0.9,0.6-2,0.7-3c0.4-4.6,0.9-9.2,1.3-13.8
		c0-0.2,0-0.5-0.1-0.6c-0.4-0.6-1.2,0-1.6,0.6c-4.9,8-9.7,16.1-14.3,24.2c0.5,0.1,1.1-0.2,1.6-0.4
		C107.2,142.5,110.3,141,113.3,139.4"/>
	<path d="M248.8,161.8c1.1-1.3,4.2-3.5,5.3-4.7c1.3-1.5,2.6-3.1,3.5-4.9c0.9-2.1,1.2-4.4,1.9-6.5c0.7-2.2,2-4.3,4.1-5.1
		c1.7-0.6,3.7-0.1,4.9,1.2c1.2,1.3,1.6,3.3,0.9,5c-1.3,3.1-5.5,4.3-6.4,7.5c-0.8,2.6,1.2,5.5,3.8,6.5c2.6,1,5.5,0.5,8.1-0.3
		c7.7-2.5,14.5-8,18.4-15.1c0.6-1.1,2.4-0.6,2.9,0.5s0.1,2.4-0.4,3.6c-1,2.3-2.2,4.5-2.3,7c-0.1,2.5,1.6,5.2,4,5.3
		c2.3,0.1,3.9-2,5.2-3.8c1-1.4,2-2.9,3-4.3c0.6-0.9,1.3-1.9,2.3-2.4s2.4-0.3,2.9,0.7c0.3,0.6,0.2,1.3,0.1,2
		c-0.4,3.4-0.9,6.8-1.3,10.2c6.9-5.4,12.7-12.1,17-19.7c0.5-0.8,1.9-0.3,2.1,0.7s-0.4,1.8-0.9,2.6c-4.3,6.3-8.9,12.8-15.5,16.8
		c-2.9,1.7-3.2,5.6-3.6,8.9c-1.1,8.4-4.8,16.3-9,23.7c-2.4,4.2-5,8.4-8.9,11.2c-2.4,1.7-5.7,2.8-8.2,1.3c-1-0.6-1.8-1.5-2.9-1.6
		c-1.2-0.2-1.7-1.7-1.8-2.9c-0.4-6.7,2.5-13.2,6.7-18.4c4.2-5.2,9.5-9.4,14.6-13.7c1.7-1.4,3.5-2.9,4.7-4.8c1.2-1.9,1.8-4.3,1-6.4
		c-0.2-0.5-0.8-1-1.2-0.6c-1,1.2-2.6,1.7-4,2.2c-2.9,1-6.4,1.7-8.7-0.3c-2.3-2-1.9-5.7-1.3-8.7c-2.4,1-4.3,2.9-6.3,4.5
		c-3.8,3-8.5,5.1-13.3,5c-4.8-0.1-9.8-2.8-11.7-7.2c-2.2,4.3-15.5,12.2-18.4,10.4 M282,203.3c0.8,1.5,2.9,1.9,4.5,1.3
		c1.6-0.6,2.8-1.9,3.9-3.2c6.8-8.2,11.6-18.1,13.9-28.5c-4.7,3.6-9.4,7.3-13.4,11.6s-7.4,9.5-8.9,15.2
		C281.6,200.9,281.4,202.2,282,203.3 M265.5,144.8c-0.7-0.3-1.6,0.1-2.1,0.7c-0.5,0.6-0.7,1.5-0.9,2.3c-0.1,0.6-0.3,1.3-0.4,1.9
		c-0.1,0.3-0.1,0.7,0.1,0.8c0.3,0.2,0.6,0,0.9-0.2c0.4-0.3,0.8-0.6,1.2-0.9c0.8-0.6,1.6-1.2,2-2.1
		C266.7,146.4,266.4,145.2,265.5,144.8"/>
	<path d="M245.9,163.3c-0.7,0.2-2.9,2.2-3.6,2.3c3.8-2.9,8-5.9,12.2-8.7c-2.4,3-5.2,5.8-8.3,8.2c-1.3,1-2.8,2-4.4,2.2
		c-2.7,0.3-5.2-1.4-6.6-3.7c-1.4-2.3-1.9-5-2.3-7.6c-5.5,5-11.5,9.5-17.7,13.6c-2.3,1.5-2.1,4.8-1.8,7.5c0.3,3.1,0.4,6.4-1,9.1
		c-1.4,2.8-4.6,4.9-7.6,4.1c-3.2-0.8-4.9-4.6-4.3-7.9c0.6-3.2,2.8-5.9,5.3-8.1c2.2-1.9,3.2-5,3.2-8c0-3-0.9-5.8-1.7-8.7
		c-4.7,4.1-10.2,7.2-16.1,9c-2.4,0.8-5.6,1.2-7.2-0.9c-0.9-1.2-0.9-2.7-0.9-4.2c0-2.9,0.7-7.6-0.1-8.4s-6.9,6-9.3,10
		c-1.5,2.5-3.2,5.5-6.1,5.7c0-4.2,1.1-8.3,3-12.1c-6.9,6.7-13.8,13.3-20.6,20c0.5-3.4,1.7-1.3,1.9-1.9c-1.8,13.9-8.5,28.1-18.6,37.9
		c-3.1,3-7.8,5.9-11.5,3.6c-3.9-2.4-3.1-8.3-1.3-12.5c3.4-7.9,8.9-14.9,15.7-20c5.3-4,12-8,12.2-14.6c0-1-0.1-1.6,0.2-2.8
		c0.5-2.3,1-2.6,1.9-2.3c1.4-0.7,1.4,4.3,0,6.5c0.1-2.3,0.2-4.1,0.3-6.4c-1.8,0.7-5.4,2.7-8,4.1c-2.6,1.5-6.2,2.2-8.5,0.3
		c-2.7-2.3-2-6.5-1.1-9.9c0.4-1.4,0.8-2.8,1.1-4.2c0.4-1.5,0.9-3.1,2.3-3.8s3.4,0.9,2.6,2.1c-1.9,3-3,6.5-3.3,10
		c-0.1,1.7,0.4,3.9,2.1,4.1c0.6,0.1,1.2-0.2,1.8-0.4c3.2-1.5,6.1-3.9,8.1-6.8c0.9-1.2,1.6-2.6,2.9-3.4c1.3-0.8,3.3-0.7,4,0.7
		c0.4,0.8,0.2,1.7,0.1,2.5c-0.7,3.6-1.3,7.2-2,10.7c7.1-4.2,12.7-10.9,15.6-18.6c0.7-1.9,3.8-1.5,4.8,0.2c1,1.7,0.6,3.9,0.2,5.8
		c-0.7,0.6-0.5-0.4,0-0.2c1.4-4.2,6.1-6.9,10.2-8.8c1-0.5,2.3-0.8,3,0c0.3,0.4,0.4,0.9,0.5,1.4c0.6,4,0.1,7.4,0.1,11.7v0.7
		c0.3,0.7,0,0.7,0.9,1.5c8.6-0.8,16.5-6.4,20-14.3c0.9-2.1,2.9-4,5.2-3.9c2.3,0.1,3.9,3.5,2.1,4.9c-4.6,3.6-4.2,10.6-3.3,16.4
		c0.1,0.6,0.3,1.4,1,1.5c0.4,0,0.7-0.2,1-0.4c4.6-3.3,9.1-6.7,13.7-10c1.4-1,2.8-2,3.7-3.5c1.2-1.9,1.4-4.3,1.6-6.5
		c1.1-11.6,4.9-23,11-32.9c2.4-4,5.3-7.9,9.3-10.3c1.3-0.8,3-1.4,4.2-0.5c1.1,0.9,1.1,2.6,0.8,4c-2,12.4-7.3,24.2-15.1,33.9
		c-0.9,1.6-1.9,3.2-2.8,4.8c-1.8,3.1-3.7,6.4-3.5,10c0.1,3.6,3.2,7.3,6.7,6.7 M146.5,180.5c0.1-0.5-0.7-0.4-1-0.1
		c-1.8,1.4-3.6,2.8-5.3,4.3c-5.6,4.5-11.4,9.2-14.8,15.5c-1.4,2.6-2.4,5.3-2.9,8.2c-0.1,0.7-0.2,1.5,0.2,2c0.6,0.8,1.8,0.6,2.7,0.2
		c4.3-1.6,6.1-2.9,7.9-4.8c0.4-0.3,1.3-1.3,1.6-1.7c0.4-0.4,0.6-0.7,0.8-1.1c0.2-0.3,0.5-0.7,0.8-1.3
		C140.7,195.1,144,187.9,146.5,180.5 M254.7,113c0.1-0.8,0.1-1.8-0.5-2.3c-6.3,9.6-11.2,20-14.6,31c-0.4,1.2-0.7,2.4-0.7,3.7
		c2-2.9,4-5.9,6-8.8c1.2-1.8,2.5-3.7,3.6-5.6C251.7,125.5,253.9,119.4,254.7,113 M206.2,186c1.7-2.4,2.7-5.2,3-8.1
		c0.1-1-0.3-2.3-1.3-2.2c-0.4,0.1-0.6,0.3-0.9,0.6c-1.3,1.4-2.2,3.2-2.9,5c-0.6,1.7-0.9,3.9,0.5,5c0.3,0.2,0.6,0.4,0.9,0.3
		C205.8,186.5,206,186.2,206.2,186"/>
	<path d="M92.5,151.1c3.1-1.7,6.5-3.6,8-6.9c4.4-9.3,9.4-18.2,14.8-26.9c0.7-1.2,1.5-2.4,2.7-3.2s2.7-1.1,3.9-0.4
		c1.8,1.1,1.8,3.7,1.6,5.8c-0.7,5.5-1.3,10.9-2,16.4c-0.1,0.6,0.2,1.5,0.8,1.2c2-0.8,4.1-1.5,6.2-2c0.9-0.2,2-0.4,2.8,0.1
		c0.8,0.5,1,1.9,0.1,2.3c-2.6,1.2-5.2,2.3-7.8,3.5c-1.4,0.6-2.9,1.5-3.1,3c-1.5,13.1-3.5,26.1-6,39.1c-0.2,1.2-0.5,2.4-1.4,3.3
		c-0.9,0.8-2.6,0.9-3.1-0.2c-0.3-0.5-0.2-1.2-0.1-1.8c2.1-13.5,4.2-27,6.2-40.5c-3.5,1.6-7,3.1-10.4,4.7c-1.5,0.7-3.1,1.4-4.4,2.5
		c-1.7,1.4-2.7,3.5-3.6,5.4c-4.4,9.1-8.2,18.6-11.5,28.2c-0.2,0.7-1.2,0.9-1.8,0.5c-0.6-0.4-1-1.1-1.2-1.7c-1-3.4,0.6-7,2.1-10.2
		c3.1-6.7,6.3-13.5,10.2-19.8c-6.6,3.6-13.2,7.1-19.8,10.6c-0.9,0.5-2,1-3,0.7c-1-0.3-1.5-1.9-0.6-2.4
		C78.9,158.6,85.7,154.8,92.5,151.1 M114.1,140.7c1.2-0.6,2.4-1.3,3.1-2.4c0.5-0.9,0.6-2,0.7-3c0.4-4.6,0.9-9.2,1.3-13.8
		c0-0.2,0-0.5-0.1-0.6c-0.4-0.6-1.2,0-1.6,0.6c-4.9,8-9.7,16.1-14.3,24.2c0.5,0.1,1.1-0.2,1.6-0.4C108,143.7,111,142.2,114.1,140.7"
		/>
</g>
</svg>
