<svg id="Layer_1" data-name="Layer 1" xmlns="http://www.w3.org/2000/svg" viewBox="0 0 1366 450"><defs><style>.cls-1{fill:#ffc78a;}.cls-2{fill:#231d1d;}.cls-3{fill:gray;}.cls-4{fill:none;stroke:#ffc78a;stroke-miterlimit:10;}</style></defs><title>Artboard 1</title><path class="cls-1" d="M554.91,228.79h7.39v40.34h12.17v6.72H554.91Z"/><path class="cls-1" d="M581.6,240.08c0-7.53,4-11.83,11.23-11.83s11.23,4.3,11.23,11.83v24.47c0,7.53-4,11.83-11.23,11.83s-11.23-4.3-11.23-11.83ZM589,265c0,3.36,1.48,4.64,3.83,4.64s3.83-1.28,3.83-4.64V239.61c0-3.36-1.48-4.64-3.83-4.64s-3.83,1.28-3.83,4.64Z"/><path class="cls-1" d="M620,241.76h-.13v34.08h-6.66V228.79h9.28L630,257h.13V228.79h6.59v47.06h-7.6Z"/><path class="cls-1" d="M657.63,249.63H668v14.92c0,7.53-3.76,11.83-11,11.83s-11-4.3-11-11.83V240.08c0-7.53,3.76-11.83,11-11.83s11,4.3,11,11.83v4.57h-7v-5c0-3.36-1.48-4.64-3.83-4.64s-3.83,1.28-3.83,4.64V265c0,3.36,1.48,4.57,3.83,4.57S661,268.39,661,265v-8.67h-3.36Z"/><path class="cls-1" d="M692.72,275.85c-.4-1.21-.67-1.95-.67-5.78v-7.39c0-4.37-1.48-6-4.84-6h-2.55v19.16h-7.4V228.79h11.16c7.66,0,11,3.56,11,10.82v3.7c0,4.84-1.55,7.93-4.84,9.48v.13c3.7,1.55,4.91,5,4.91,9.95v7.26a13.86,13.86,0,0,0,.81,5.71Zm-8.07-40.34V250h2.89c2.76,0,4.44-1.21,4.44-5v-4.64c0-3.36-1.14-4.84-3.76-4.84Z"/><path class="cls-1" d="M708.78,228.79h7.39v47.06h-7.39Z"/><path class="cls-1" d="M726.06,228.79h11.7c7.39,0,11,4.1,11,11.63v23.8c0,7.53-3.63,11.63-11,11.63h-11.7Zm7.39,6.72v33.61h4.17c2.35,0,3.76-1.21,3.76-4.57V240.08c0-3.36-1.41-4.57-3.76-4.57Z"/><path class="cls-1" d="M769.08,249.63h10.35v14.92c0,7.53-3.77,11.83-11,11.83s-11-4.3-11-11.83V240.08c0-7.53,3.76-11.83,11-11.83s11,4.3,11,11.83v4.57h-7v-5c0-3.36-1.48-4.64-3.83-4.64s-3.83,1.28-3.83,4.64V265c0,3.36,1.48,4.57,3.83,4.57s3.83-1.21,3.83-4.57v-8.67h-3.36Z"/><path class="cls-1" d="M796.1,248.62h10.15v6.72H796.1v13.78h12.77v6.72H788.71V228.79h20.17v6.72H796.1Z"/><path class="cls-2" d="M610.83,169.89h.46a3.37,3.37,0,0,1,2.23.64,2,2,0,0,1,.74,1.56,2,2,0,0,1-1.6,2,16.36,16.36,0,0,1-2.4.69,15.67,15.67,0,0,0-3.43,1.39.67.67,0,0,0-.46-.12,2.89,2.89,0,0,0-1.32.52,2.09,2.09,0,0,1-1.43.41,8,8,0,0,1-2.63,1q0,.46-.06,1.39a5.07,5.07,0,0,1-.29,1.51c-.08.39-.15.89-.23,1.51a12.35,12.35,0,0,0-.11,1.39,12.94,12.94,0,0,0-.46,2.9l-.46,2.9q-.12,1.28-.57,3.82a20.48,20.48,0,0,0-.46,2.9,11.83,11.83,0,0,1-.69,2.32,3.58,3.58,0,0,0-.06,1.1,2.11,2.11,0,0,1-.06.87q-.23.93-.8,3.59-.12.69-.34,1.74a4.7,4.7,0,0,0-.11,1.74,2.91,2.91,0,0,1-.17.87l-.29.87c-.15.54-.29,1.06-.4,1.56s-.25,1-.4,1.56a6.32,6.32,0,0,0-.34,1.56c-.08.66-.15,1.18-.23,1.56l-.69,2.67a33.1,33.1,0,0,0-1.14,4.64,2.21,2.21,0,0,1-.4.7,1.09,1.09,0,0,0-.29.7v.35a3.88,3.88,0,0,1-.23,1.16q0,.23-.4.64a.88.88,0,0,0-.29.87L589.55,229l-1-.23-.57.81-1.6-1v-.12l-.46.7-1.37-.7q-.23-.58-.11-.7.11-.35.46-1.62a6.8,6.8,0,0,0,.23-2.43,2.82,2.82,0,0,1,.34-.93,4.59,4.59,0,0,1,.69-.46,3.78,3.78,0,0,1-.23-.93l.23-.23c-.15-.16-.27-.23-.34-.23h.11a7.45,7.45,0,0,1,.23-2.49q.34-1.45.46-2.14t.46-2a5.87,5.87,0,0,0,.23-2.2,5,5,0,0,1,.8-2.9l1-7.42.46-.23a9.72,9.72,0,0,1-.23-1.74l.11-1.27.57-.58a2.48,2.48,0,0,1-.11-1.27,2.59,2.59,0,0,1,.11-.81,4.33,4.33,0,0,1,.23-.58q0-.35.11-1.51a6.77,6.77,0,0,1,.46-2,9,9,0,0,1,.4-3.19q.51-1.8.74-3l.34-1.16a9.93,9.93,0,0,1,.46-2.43,9.8,9.8,0,0,0,.57-1.85l-1.83.93-2.52,1a22.25,22.25,0,0,0-4.35,1.74,4.5,4.5,0,0,1-1.49.52,11.49,11.49,0,0,0-1.26.29L579.14,186q-1.14.58-3.43,1.51a4.4,4.4,0,0,1-.8,1.16,7,7,0,0,0-.57,1.27,2.79,2.79,0,0,1-.8,1.28,6.87,6.87,0,0,1-.92,2.14c-.46.73-.76,1.22-.92,1.45a21.78,21.78,0,0,0-1.26,2.09,64.06,64.06,0,0,0-3.09,6.49l-.92,2.09a14,14,0,0,1-.92,2.2,3.5,3.5,0,0,1-.92.81l.46.35v.23a13.94,13.94,0,0,0-1.14,2.49q-.57,1.57-1,2.61a34.3,34.3,0,0,0-2.75,8l-1,.35-.46.7-1.6-1.16c-.08.15-.23.42-.46.81l-1.72-1.62.46-2.67a8.74,8.74,0,0,1,.11-1,2.8,2.8,0,0,1,.57-1.33,13.18,13.18,0,0,1,.46-2.09c.23-.77.38-1.27.46-1.51a17.71,17.71,0,0,1,1.72-4.4h.11a.35.35,0,0,0,.06-.35.34.34,0,0,1,.06-.35q.34-.81,1-2.72a13,13,0,0,1,1.6-3.19,7.38,7.38,0,0,0,.51-1,7.07,7.07,0,0,1,.51-1,17.89,17.89,0,0,0,1.83-3.54q.8-2,1.14-2.72l.34-.35q.11.35.34.35a1.09,1.09,0,0,0,.57-.23l-.92-.12a3.66,3.66,0,0,1,.23-1l-.11.12-.92.46a17.84,17.84,0,0,1-2.52.93,3.59,3.59,0,0,0-1,.64,1.92,1.92,0,0,1-1.2.52l-6.18,3.13-4.58,2.32h-2.4a1.24,1.24,0,0,1-.63-.29.77.77,0,0,0-.86-.06l-.34.12a2.79,2.79,0,0,1-1-.58l-.11-.93.92-.64,1.26-.87q3.2-2.43,5.84-4.06,1.15-.81,5.84-3.24l6.06-3.25a46.28,46.28,0,0,1,4.81-2,.64.64,0,0,1,.46-.06,1.79,1.79,0,0,0,.46.06l.8-.7q2.06-3.71,3.89-6.72a21.29,21.29,0,0,0,1-2.32l1-2.32,1-2.09a71.62,71.62,0,0,1,3.66-7,10.24,10.24,0,0,0,.92-1.85,7.07,7.07,0,0,1,2.06-3,6.71,6.71,0,0,0,1.37-2.09,11.59,11.59,0,0,0,.4-1.1,2,2,0,0,1,1-1.22,6.71,6.71,0,0,1,1.49-3.13,12.73,12.73,0,0,0,1.26-2.32.34.34,0,0,0,.11-.23.1.1,0,0,1,.11-.12,12.82,12.82,0,0,0,2.17-2.78,22.09,22.09,0,0,1,2.4-2.9,8,8,0,0,1,.51-.7,8.52,8.52,0,0,0,.51-.69l2.06-1q2.75-.23,4-.23a13.11,13.11,0,0,1,1.94,1.16,17.56,17.56,0,0,1,1.26,6.37,19.86,19.86,0,0,1-.46,3.48l-.11.81a30.09,30.09,0,0,1-.34,4.41,16,16,0,0,0-.23,2.84v2l-.57.46.34,1.51-.69,5-.69,4.17,2.17-.58,2.75-.7a14,14,0,0,1,2.63-.69ZM558.66,210h-.11v.58h.11Zm.57-1.51-.23-.12C559,208.52,559.08,208.56,559.23,208.48Zm5.95-2h-.11V207h.11Zm1-2.09H566l.11.23Zm6.86-21.91a.1.1,0,0,0,.11-.12Zm20.25-8a2.91,2.91,0,0,0,.92-.12,1.9,1.9,0,0,0-.23-.81,3.3,3.3,0,0,0,.57-.69q.11-.12-.34-.58h.11v-.46a12.36,12.36,0,0,1,.57-3.36,31.4,31.4,0,0,0,.8-3.36l1-6.26a46.12,46.12,0,0,0,.46-9.27,1.47,1.47,0,0,0-.92.58,5.16,5.16,0,0,0-.46.7,7.77,7.77,0,0,0-1.26,2l-1.26,1.85-1.83,2.67-.86,1.27a6.13,6.13,0,0,0-.86,1.74c0,.31,0,.46-.11.46a1.28,1.28,0,0,0-.74,1,1.57,1.57,0,0,1-.51,1,6.88,6.88,0,0,1-.92,2.14q-.69,1.1-1.49,2.14a3.79,3.79,0,0,1-.06.58,3,3,0,0,1-.29.81l-1.95,3.36q-1.6,3-2.52,4.4a20.33,20.33,0,0,0-1.14,2.55.47.47,0,0,0,.11.35l-1,.7a5.8,5.8,0,0,0,1.6-.58q.91-.46,1.49-.7l5.72-2.2q.23-.12,1.6-.93l.8.23,1.43-.64,1.09-.52Zm-7,53.89a1.63,1.63,0,0,0-.06-.35.52.52,0,0,0-.29-.35l-.57.7Zm1.26-12.4h-.11l.11.12Zm.69-53.32-.11-.93A.65.65,0,0,0,588.29,162.7Zm9.15-13.44-.11.23.23-.12A.1.1,0,0,0,597.45,149.25Z"/><path class="cls-2" d="M652,189.36a2.83,2.83,0,0,1,1.66.52,1.57,1.57,0,0,1,.74,1.33,1.91,1.91,0,0,1-.57,1.39q-1.26,1.85-8.07,8.29a73.73,73.73,0,0,1-10.58,8.75,3.07,3.07,0,0,1-.74.29,4.72,4.72,0,0,0-1.32,1.1l-.23-.12q-.23.58-.74,1.74a5.43,5.43,0,0,0-.51,2.2,9.33,9.33,0,0,1-.69,2.78,14.91,14.91,0,0,0-.57,2.55,9.15,9.15,0,0,0-1.26,2.84q-.46,1.68-.8,2.61a.48.48,0,0,1-.11.35,1.26,1.26,0,0,0-.23.35,4.9,4.9,0,0,0,.11,1.16,3.54,3.54,0,0,0-.92.69l.11,1.74a48.57,48.57,0,0,1-6.64,14.14q-.69,1-1.83,3.13a3.79,3.79,0,0,1-1.14,1.39,1,1,0,0,0-.06-.29c0-.12-.17-.1-.4.06l.46.23a20.08,20.08,0,0,0-1.32,1.74q-.63.93-1.43,2a2.93,2.93,0,0,1-.8.35l-.57,1.16-3.2,3.13a15.74,15.74,0,0,1-7,5,8.53,8.53,0,0,1-3.66.81q-.57,0-3.09.23a17.71,17.71,0,0,1-1.72-.75l-1.49-.75a8.69,8.69,0,0,1-1.94-3.13q-.69-1.85-.92-2.43l-.11-3a14.56,14.56,0,0,1,.46-3.71q.23-.58.74-2.26a13.09,13.09,0,0,1,1.2-2.84,24.6,24.6,0,0,0,1.32-2.14,25.16,25.16,0,0,1,1.32-2.14,2.4,2.4,0,0,0,.51-1.22,5.79,5.79,0,0,1,.29-1.1q2.17-2.55,3.89-5a19.07,19.07,0,0,1,3.43-3.71l3-2.78q1-1.16,2.4-2.43a45.59,45.59,0,0,1,4.35-3.71,5.78,5.78,0,0,0,1.6-1.51,21.23,21.23,0,0,1,5-4.29q3.2-2.32,4.81-3.59a30.53,30.53,0,0,0,1.6-8.93,6.63,6.63,0,0,0-1.72,1.28,16.78,16.78,0,0,1-1.66,1.45l-1.43,1.1h-.23a9,9,0,0,1-3.78,2.67q-.34.12-.86.35a4.8,4.8,0,0,1-1.2.35,3,3,0,0,0-1,.17l-.86.29a13.48,13.48,0,0,0-3-.58,4.37,4.37,0,0,1-2.63-.93,4.3,4.3,0,0,1-1.72-3.48,4.69,4.69,0,0,0-.17-1.22,4.65,4.65,0,0,1-.17-1.22,2.92,2.92,0,0,1,.34-1.28,2,2,0,0,0-.06-1,1.54,1.54,0,0,1,.17-1.28,8.23,8.23,0,0,0,1-2.9,21.54,21.54,0,0,1,1.72-5.27,16.92,16.92,0,0,1,3.32-5,3.79,3.79,0,0,1,2.63-.93,3.87,3.87,0,0,1,2.69,1,1.69,1.69,0,0,1,.63,2q-.46.93-1.95,3.65a25.05,25.05,0,0,0-2.17,5.16,18.26,18.26,0,0,0-.69,5,18.8,18.8,0,0,0,.11,2.43,2,2,0,0,0,.34.93l.34.46q.46-.23,1.77-1a6.38,6.38,0,0,0,2.12-1.91,4.1,4.1,0,0,1,1.14-1.16,12,12,0,0,0,1.2-.87,5.42,5.42,0,0,0,1.54-1.91,10.43,10.43,0,0,1,1.09-1.56,10.5,10.5,0,0,0,1.09-1.56,7.92,7.92,0,0,1,4.23-3.94l1.37.35.8-.93a4.92,4.92,0,0,1,1.72,1A1.37,1.37,0,0,0,633,191a3.67,3.67,0,0,1,.92-.29,3.08,3.08,0,0,0,.92.35l.69.46a1,1,0,0,0,.17.52,1.06,1.06,0,0,1,.17.52,10.43,10.43,0,0,0-.46,2.38q-.12,1.33-.11,1.8a14.52,14.52,0,0,1-.69,2.67,6.82,6.82,0,0,1-.23,2.26,7.26,7.26,0,0,0-.23,2.38.32.32,0,0,0,.4.17,1,1,0,0,0,.51-.29q3.78-2.78,8.75-7.19a41,41,0,0,0,6.35-6.49A1.84,1.84,0,0,1,652,189.36ZM623.19,218.8a1.27,1.27,0,0,1-.4-.06.25.25,0,0,0-.29.06,12.76,12.76,0,0,0-2.29,1.51l-5.95,5.45q-1.37,1-1.49,1.16a7.91,7.91,0,0,1-.69.52,2.39,2.39,0,0,0-.8.87,10.27,10.27,0,0,1-1.37,1.85,7,7,0,0,0-1.49,2l-.69.23a2.23,2.23,0,0,1-.8,1.39q-1.26,1.39-1.49,1.62-.8,1.39-2.63,3.94l-1.94,2.9a13.25,13.25,0,0,0-1.83,3.3q-.69,1.8-.8,2.14V248a1.34,1.34,0,0,1-.46.93c-.3.31-.46.54-.46.69a3.94,3.94,0,0,0,.11.93,1,1,0,0,1,0,.69,7.86,7.86,0,0,0-.46,2.67,13,13,0,0,0,1,4.52,4.33,4.33,0,0,0,1.37.35l.8-.58a28.58,28.58,0,0,0,7.44-6.14l1.49-1.74q2.4-3,2.86-3.71l4.92-7.3a1.3,1.3,0,0,1-.11-.58l1.72-4.29q.34-.81,1-2.14a7.84,7.84,0,0,0,.74-2.26l.46-1.62q.11-.35.8-1.91a9.58,9.58,0,0,0,.8-3.19,2.1,2.1,0,0,1,.34-1A5.83,5.83,0,0,0,623.19,218.8Zm.23-.35-.11.35C623.46,218.64,623.49,218.52,623.42,218.45Zm2.29-24.11h-.11l.11.12Z"/><path class="cls-2" d="M694.81,190.86a2.09,2.09,0,0,1,1.54.64,2,2,0,0,1,.63,1.45,1.67,1.67,0,0,1-.23.93l-2.4,2.78-2.52,2-5,3.94q-.57.47-2.17,1.62a17.18,17.18,0,0,1-3,1.8,11.41,11.41,0,0,1-3,.87,4.71,4.71,0,0,1-3,.81,6.93,6.93,0,0,0-1,.12,6.06,6.06,0,0,0-1.26.35l-4.35-1a1.74,1.74,0,0,1-1.26-1v.12l-.57-.12a5.23,5.23,0,0,1-1.37-2.67,19.24,19.24,0,0,1-.69-4.17,6.21,6.21,0,0,1,.11-1.39,30.09,30.09,0,0,0,.11-3l.57-.46q-.12-1.16-.11-3.36a.66.66,0,0,0-.46.12q-.57.58-2.12,2.09a20.18,20.18,0,0,0-2.57,3,3.62,3.62,0,0,1-.86.81,1.39,1.39,0,0,0-.63,1.16q-.23.23-.8.7a2.55,2.55,0,0,0-.8,1,5.28,5.28,0,0,1-1.14,1.62,1.21,1.21,0,0,0-.46.81,3.7,3.7,0,0,1-.23.81q-.23.35-.63,1a5.31,5.31,0,0,1-.74,1,9.87,9.87,0,0,0-.74,1.22q-.4.76-.63,1.22a11.28,11.28,0,0,1-1.72,1.39l-1.26-.23-1,.46-1.49-.93-1.14.35-1-.81a5.63,5.63,0,0,1-.11-1.27,7,7,0,0,1,.57-2.67,18.28,18.28,0,0,0,.8-2.67q.23-.58.74-2.38a15.58,15.58,0,0,1,1.2-3.07V195a4.44,4.44,0,0,1,.11-1v-.23a.72.72,0,0,0-.11-.41,4.1,4.1,0,0,1-.23-.41,2.39,2.39,0,0,1,.92-.12q-.69-.69-.92.12,1.49-7,3-8.46l1.37.46,1.37-.12a10.67,10.67,0,0,0,1.6,1.51,13.61,13.61,0,0,1,.69,3.48,6.8,6.8,0,0,1-.34,1.62,3.56,3.56,0,0,0-.11,2,1.78,1.78,0,0,1,.46-.35.75.75,0,0,0,.34-.35,26.64,26.64,0,0,1,2.06-2.55,25.8,25.8,0,0,1,1.95-1.8l1.6-1.33,2.86-2.78L667,182.4a8.08,8.08,0,0,0,1.37-.17,4.58,4.58,0,0,1,1.6-.06,5.46,5.46,0,0,0,1.43.06,4.53,4.53,0,0,1,1.32.06,2.52,2.52,0,0,1,1.26,1.85,4.72,4.72,0,0,1,.11,1.1v.87l-.57.46a4.17,4.17,0,0,1,.11,1.16,3.08,3.08,0,0,1-.11.93,17.56,17.56,0,0,0-.74,2.9q-.29,1.62-.4,2.2l-.57,2.67a14.26,14.26,0,0,0-.23,2.2,6.32,6.32,0,0,0,.46,2.55,13,13,0,0,1,.34,2.09l.92,1.28.8.12q1.83-.58,2.4-.81a28.22,28.22,0,0,0,8.81-5.45l.57-.35a30.56,30.56,0,0,0,5.61-4.64l1.6-1.85A2.89,2.89,0,0,1,694.81,190.86Zm-30.66-.23h-.23v.12Zm1.83-.12a.48.48,0,0,0-.11.35C666.17,190.86,666.21,190.75,666,190.52Zm.34,13.33a2.7,2.7,0,0,0,.23-.93v-.12A2.84,2.84,0,0,0,666.32,203.84Zm1.26.46-1.14-.23.92.46Zm1,1.74a11.64,11.64,0,0,0-.69-1,2.33,2.33,0,0,1-.23,1Zm.46.23-.23-.12.23.35Z"/><path class="cls-2" d="M719.87,190.52a1.64,1.64,0,0,1,1.2.52,1.44,1.44,0,0,1,.29,1.45,7,7,0,0,1-1.54,2.09q-1.32,1.39-2.23,2.2l-5.26,3.71-.69.35q-1.15,1-3.66,2.9t-3.09,2.2q-.34.35-4.58,3.59v1a3.24,3.24,0,0,0,.23,1.39,2.48,2.48,0,0,1,.11.93,4.78,4.78,0,0,1-.34,1.62,7,7,0,0,1,.34,2.55,20.49,20.49,0,0,1-.11,2.55l-.34,3.13a3.3,3.3,0,0,1-.11.69c-.08.31-.15.58-.23.81a3.47,3.47,0,0,1-.46,1.39,6.49,6.49,0,0,0-.74,1.56,6.63,6.63,0,0,1-.74,1.56,8.72,8.72,0,0,1-2.12,2.32,12.13,12.13,0,0,1-2.92,1.85l-.92.46-.57.35q-1.49.11-3.66.12a8.36,8.36,0,0,1-5.15-1.39q-.57-.81-1-1.56t-1-1.56V226.1a11.57,11.57,0,0,1,1.37-4.52,31.08,31.08,0,0,1,4.92-6.26q.57-.7,1.26-1.56a22.34,22.34,0,0,1,1.6-1.8A5.56,5.56,0,0,1,691,210.8a3.12,3.12,0,0,0,1.83-2.09q-.12-1.51-.34-3.36t-.34-2.9q-.46-2.67-.57-4.29a15.45,15.45,0,0,1-.34-2.9l.11-2.78a17,17,0,0,1,.8-2.09l.34-.23-.34-.35v.12a3,3,0,0,1-.11-.93,4.57,4.57,0,0,1,.51-2.14q.51-1,1.43-2.49a5.8,5.8,0,0,1,1.66-1.85q1.09-.81,2.23-1.51a3.88,3.88,0,0,1,1.26-.58h3.09a13.81,13.81,0,0,1,1.72.93l1.37,1.16-.23,2.9q-.92,1.28-3,3.82a13.84,13.84,0,0,1-1.66,1.62,11.06,11.06,0,0,0-1.77,1.85l-.46,2.2.8,4.4-.34.58c.08.31.15.6.23.87s.15.52.23.75a2.08,2.08,0,0,1,.06.81.93.93,0,0,0,.06.58v.46a2.9,2.9,0,0,0,.23,1.28l5.61-3.82,5.26-3.71,2.06-1.74a10.57,10.57,0,0,1,3.55-2.67q1.94-1.62,2.29-1.51l1.26-.7Zm-37.53,39.87c0,.39.27.69.8.93a1.07,1.07,0,0,0-.8-1.16Zm1.14,1.27-.23-.12.11.12Zm.8-1.51a.45.45,0,0,1,.34.12Q684.63,229.92,684.29,230.15ZM693.67,218v-.7l-.11-1.85a6.64,6.64,0,0,0-2.75,2,20.09,20.09,0,0,1-1.94,2Q687,223,686,224.71v.46l.57.58-.23,1.85-.57.58a26.38,26.38,0,0,1,2.52,2.09,10.28,10.28,0,0,0,3.66-5.22,25,25,0,0,1,.8-2.49,11.48,11.48,0,0,0,.69-2.72Zm-7.09,11.82a.48.48,0,0,1-.11-.35l-.11.23Zm.46.23-.34-.12a.47.47,0,0,1,.11.35Zm5.15-40.1v.46l-.34-.23C692,190,692.1,189.94,692.18,189.94Zm5.26,38-.11.12h.11Z"/><path class="cls-2" d="M718.27,208.71a44.34,44.34,0,0,1-1.72-11,36.58,36.58,0,0,1,.34-4.87.89.89,0,0,0-.11-.35q-.11-.23,0-.35.12-.35.4-1a3.4,3.4,0,0,0,.29-1.27,1.65,1.65,0,0,0-.11-.69,1.62,1.62,0,0,0,.57-1.1q.11-.75.23-1.22a5.78,5.78,0,0,0,.4-1.16l.29-1.16q.34-1.27,1.26-3.83l1-3,1.72-4.52c.08-.15.17-.33.29-.52a1,1,0,0,0,.17-.52.68.68,0,0,0-.11-.46l.69-1a.51.51,0,0,0,0-.46.5.5,0,0,1,0-.46q1.14-2.9,1.95-5.33a17.28,17.28,0,0,0,.8-2.09l.34-1.1a1.85,1.85,0,0,1,.8-1.1,5,5,0,0,0,.17-1,1.62,1.62,0,0,1,.4-1,8.47,8.47,0,0,0,1.37-2.32,19.41,19.41,0,0,1,1.37-2.32l2.06-4.06a6.62,6.62,0,0,0,.29-.75,1.94,1.94,0,0,1,.4-.75,8.18,8.18,0,0,0,1.54-1.91q.74-1.22,1.2-1.91l.92-1.16,1.37-1.39a7.23,7.23,0,0,0,1.37-1.85,9.68,9.68,0,0,0,1.6-1.39,4.41,4.41,0,0,1,1.94-1.28l1.72-.64a4.85,4.85,0,0,1,2.63-.29h1.14l.8.52q.46.29.92.64l1.37,1.39.57,3.71q-.69,3.48-.8,3.94a11.82,11.82,0,0,1-.51,1.62c-.19.46-.36.85-.51,1.16L750,151.51q-.74,1.8-1.2,3.19a8.69,8.69,0,0,1-.69,1.51,4.63,4.63,0,0,0-.57,1.51,6,6,0,0,1-.57,1.62l-.69,1.39-1.26,2.9q-.69,1.28-3.66,5.68a1.94,1.94,0,0,0-.69,1.28,2.1,2.1,0,0,1-.69,1,10.7,10.7,0,0,0-2.52,4.29,5.59,5.59,0,0,1-2.17,2.67,15,15,0,0,1-3.09,5,14.31,14.31,0,0,1-2.29,2.78,10.1,10.1,0,0,0-2.06,2.32,30.93,30.93,0,0,1-2.63,3,1.78,1.78,0,0,1-.46.35,5.45,5.45,0,0,0-.57.35,12.77,12.77,0,0,0-1.2,4.06,39.9,39.9,0,0,0-.29,5.1,18.33,18.33,0,0,0,.74,5.27q.74,2.49,2.57,2.26a19.17,19.17,0,0,0,5.95-2.67l5.72-3.94q1.83-1.16,7.09-7.53,2.51-3,3.2-3.71,1.26-1.74,2.4-1.74a1.52,1.52,0,0,1,1.2.64,2.41,2.41,0,0,1,.51,1.56,6.46,6.46,0,0,1-.23,1.39,32.88,32.88,0,0,1-4.52,6.43,41.84,41.84,0,0,1-5.55,5.85l-2.06,1.39-4.46,3.13a9.16,9.16,0,0,1-1.95,1q-1.15.46-1.83.7l-2.75,1a4.7,4.7,0,0,1-1.37.06,2.5,2.5,0,0,0-1.6.41l-.74-.23a3.55,3.55,0,0,0-1-.12,4.24,4.24,0,0,1-3.09-1.39Zm3,1.39.23-.12v-.46h-.23Zm1.49-1.62.11.12v-.23Zm23.68-67.22a5.35,5.35,0,0,1-.57.35,1.77,1.77,0,0,0-.46.35q-.46.81-1.37,2.2a22.74,22.74,0,0,1-1.72,2.32,27.23,27.23,0,0,0-2.69,3.88q-1.32,2.26-1.89,3.19a30,30,0,0,0-1.83,3.82,13.07,13.07,0,0,1-.8,1.85,3.58,3.58,0,0,0-.23.81,2.6,2.6,0,0,1-.34.93,9.53,9.53,0,0,0-1.26,2.78q-.23.58-.46,1.27c-.15.46-.31.89-.46,1.28q-.46,1-1.26,2.72a16.31,16.31,0,0,0-1.14,3.07q-.12.69-2.06,7.07.57.35.8-.35l.92-1.51,1.49-1.85,3.78-5.68,1.6-2.2a7.84,7.84,0,0,0,1.37-2.67,1.63,1.63,0,0,0,.86-1.22,5.65,5.65,0,0,1,.29-1.1,10,10,0,0,0,.69-1.27,19.34,19.34,0,0,0,1.26-2.55q2.75-6,4-9.16l.46-.58.11-.58-.11-.7.29-.29a.56.56,0,0,0,.17-.41q.11-.69.23-1.68a8.41,8.41,0,0,1,.34-1.68,5,5,0,0,0,.06-1.28A11.42,11.42,0,0,1,746.41,141.26Zm-4.12,17.15.11-.12h-.11Z"/><path class="cls-2" d="M786.34,188.43a2.15,2.15,0,0,1,.92,2,4.59,4.59,0,0,1-.34,1.51q-.57,1.51-3.89,4.46a61.82,61.82,0,0,1-7.21,5.51,17.68,17.68,0,0,1-6.06,2.9,6.81,6.81,0,0,1-2.06.64,11.47,11.47,0,0,0-1.49.29,19.34,19.34,0,0,1-4.46.46,42.13,42.13,0,0,1-5.15-.46A9.81,9.81,0,0,1,749.5,202a12.34,12.34,0,0,1-2.06-3.82l-.46-2,.23-4.52.57-.93a9.44,9.44,0,0,1,1.37-4.17,41,41,0,0,1,3.26-4.46,12.77,12.77,0,0,1,3.72-3l4.58-.58a5.1,5.1,0,0,1,5.38,5,5,5,0,0,1-.34,1.74,13.63,13.63,0,0,1-2.29,4.41,19.25,19.25,0,0,1-4.06,4.11q-3.38,2.84-3.95,3.3-2.06,1.74-2.17,1.85a5.79,5.79,0,0,1,.29.87,2.27,2.27,0,0,0,1.09,1.22q.57.12,1.6.41a9.68,9.68,0,0,1,1.72.64,6.56,6.56,0,0,0,3.2.7,13.58,13.58,0,0,0,3.09-.35,21.71,21.71,0,0,0,7.49-2.61,45,45,0,0,0,8-5.39,22.35,22.35,0,0,0,5.21-5.8Q785.43,187.85,786.34,188.43Zm-35.58,13.21a.47.47,0,0,1,.34.12C751.1,201.53,751,201.49,750.76,201.64Zm.8.23h-.23l.46.81Q752.25,202.11,751.56,201.87ZM755.22,188a18.68,18.68,0,0,0-2.06,5.8,43.82,43.82,0,0,0,4.12-3.83q.34-.81.86-1.8a22.27,22.27,0,0,0,1-2.14q1.26-3,.69-3.82a1.59,1.59,0,0,1-.69.12A42.26,42.26,0,0,0,755.22,188Zm-1.72,13.68a.14.14,0,0,0-.23,0l.34.12Zm9.84-20.75.23-.12-.11-.46C763.15,180.47,763.12,180.66,763.34,180.9Z"/><path class="cls-2" d="M827.19,189.36a2.82,2.82,0,0,1,1.66.52,1.57,1.57,0,0,1,.74,1.33,1.91,1.91,0,0,1-.57,1.39q-1.26,1.85-8.07,8.29a73.69,73.69,0,0,1-10.58,8.75,3.06,3.06,0,0,1-.74.29,4.72,4.72,0,0,0-1.32,1.1l-.23-.12q-.23.58-.74,1.74a5.43,5.43,0,0,0-.51,2.2,9.32,9.32,0,0,1-.69,2.78,14.91,14.91,0,0,0-.57,2.55A9.15,9.15,0,0,0,804.3,223q-.46,1.68-.8,2.61a.48.48,0,0,1-.11.35,1.25,1.25,0,0,0-.23.35,4.91,4.91,0,0,0,.11,1.16,3.54,3.54,0,0,0-.92.69l.11,1.74a48.55,48.55,0,0,1-6.64,14.14q-.69,1-1.83,3.13a3.79,3.79,0,0,1-1.14,1.39,1,1,0,0,0-.06-.29c0-.12-.17-.1-.4.06l.46.23a20.16,20.16,0,0,0-1.32,1.74q-.63.93-1.43,2a2.93,2.93,0,0,1-.8.35l-.57,1.16-3.2,3.13a15.74,15.74,0,0,1-7,5,8.53,8.53,0,0,1-3.66.81q-.57,0-3.09.23a17.67,17.67,0,0,1-1.72-.75l-1.49-.75a8.68,8.68,0,0,1-1.95-3.13q-.69-1.85-.92-2.43l-.11-3a14.56,14.56,0,0,1,.46-3.71c.15-.39.4-1.14.74-2.26a13.13,13.13,0,0,1,1.2-2.84,24.59,24.59,0,0,0,1.32-2.14,25.06,25.06,0,0,1,1.32-2.14,2.4,2.4,0,0,0,.51-1.22,5.86,5.86,0,0,1,.29-1.1q2.18-2.55,3.89-5a19,19,0,0,1,3.43-3.71l3-2.78q1-1.16,2.4-2.43a45.59,45.59,0,0,1,4.35-3.71,5.77,5.77,0,0,0,1.6-1.51,21.21,21.21,0,0,1,5-4.29q3.2-2.32,4.81-3.59a30.53,30.53,0,0,0,1.6-8.93,6.64,6.64,0,0,0-1.72,1.28,16.77,16.77,0,0,1-1.66,1.45l-1.43,1.1h-.23a9,9,0,0,1-3.78,2.67q-.34.12-.86.35a4.8,4.8,0,0,1-1.2.35,3,3,0,0,0-1,.17l-.86.29a13.48,13.48,0,0,0-3-.58,4.37,4.37,0,0,1-2.63-.93,4.3,4.3,0,0,1-1.72-3.48,4.68,4.68,0,0,0-.17-1.22,4.68,4.68,0,0,1-.17-1.22,2.91,2.91,0,0,1,.34-1.28,2,2,0,0,0-.06-1,1.54,1.54,0,0,1,.17-1.28,8.22,8.22,0,0,0,1-2.9A21.52,21.52,0,0,1,784.4,190a16.92,16.92,0,0,1,3.32-5,3.78,3.78,0,0,1,2.63-.93,3.86,3.86,0,0,1,2.69,1,1.69,1.69,0,0,1,.63,2q-.46.93-1.94,3.65a25,25,0,0,0-2.17,5.16,18.26,18.26,0,0,0-.69,5,18.79,18.79,0,0,0,.11,2.43,2,2,0,0,0,.34.93l.34.46q.46-.23,1.77-1a6.38,6.38,0,0,0,2.12-1.91,4.11,4.11,0,0,1,1.14-1.16,12,12,0,0,0,1.2-.87,5.42,5.42,0,0,0,1.54-1.91,10.41,10.41,0,0,1,1.09-1.56,10.53,10.53,0,0,0,1.09-1.56,7.92,7.92,0,0,1,4.23-3.94l1.37.35.8-.93a4.91,4.91,0,0,1,1.72,1,1.37,1.37,0,0,0,.46-.17,3.68,3.68,0,0,1,.92-.29,3.09,3.09,0,0,0,.92.35l.69.46a1,1,0,0,0,.17.52,1.06,1.06,0,0,1,.17.52,10.41,10.41,0,0,0-.46,2.38q-.12,1.33-.11,1.8a14.49,14.49,0,0,1-.69,2.67,6.81,6.81,0,0,1-.23,2.26,7.26,7.26,0,0,0-.23,2.38.32.32,0,0,0,.4.17,1,1,0,0,0,.52-.29q3.77-2.78,8.75-7.19a41,41,0,0,0,6.35-6.49A1.84,1.84,0,0,1,827.19,189.36ZM798.35,218.8a1.27,1.27,0,0,1-.4-.06.26.26,0,0,0-.29.06,12.77,12.77,0,0,0-2.29,1.51l-5.95,5.45c-.92.69-1.41,1.08-1.49,1.16a7.91,7.91,0,0,1-.69.52,2.39,2.39,0,0,0-.8.87,10.29,10.29,0,0,1-1.37,1.85,7,7,0,0,0-1.49,2l-.69.23a2.23,2.23,0,0,1-.8,1.39q-1.26,1.39-1.49,1.62-.8,1.39-2.63,3.94l-1.94,2.9a13.25,13.25,0,0,0-1.83,3.3q-.69,1.8-.8,2.14V248a1.34,1.34,0,0,1-.46.93c-.3.31-.46.54-.46.69a3.92,3.92,0,0,0,.11.93,1,1,0,0,1,0,.69,7.85,7.85,0,0,0-.46,2.67,13,13,0,0,0,1,4.52,4.34,4.34,0,0,0,1.37.35l.8-.58a28.59,28.59,0,0,0,7.44-6.14l1.49-1.74q2.4-3,2.86-3.71l4.92-7.3a1.3,1.3,0,0,1-.11-.58l1.72-4.29q.34-.81,1-2.14a7.82,7.82,0,0,0,.74-2.26l.46-1.62q.11-.35.8-1.91a9.6,9.6,0,0,0,.8-3.19,2.1,2.1,0,0,1,.34-1A5.83,5.83,0,0,0,798.35,218.8Zm.23-.35-.11.35C798.62,218.64,798.66,218.52,798.58,218.45Zm2.29-24.11h-.11l.11.12Z"/><path class="cls-3" d="M555.21,283.81a24.45,24.45,0,0,1,3.6-.27c2.44,0,4.17.56,5.32,1.62a6,6,0,0,1,1.85,4.67,6.85,6.85,0,0,1-1.89,5.06c-1.23,1.22-3.25,1.87-5.8,1.87a27.57,27.57,0,0,1-3.08-.15Zm1.69,11.51a10.82,10.82,0,0,0,1.71.1c3.62,0,5.59-2,5.59-5.52,0-3.07-1.73-5-5.32-5a9.7,9.7,0,0,0-2,.17Z"/><path class="cls-3" d="M581.4,290.55h-5.1v4.69H582v1.41h-7.38v-13h7.09V285h-5.4v4.11h5.1Z"/><path class="cls-3" d="M590.38,294.61a6,6,0,0,0,3,.85c1.73,0,2.75-.91,2.75-2.22s-.7-1.91-2.47-2.59c-2.14-.75-3.47-1.85-3.47-3.69,0-2,1.69-3.53,4.25-3.53a6,6,0,0,1,2.9.64l-.47,1.37a5.25,5.25,0,0,0-2.49-.62c-1.79,0-2.47,1.06-2.47,2,0,1.22.8,1.82,2.61,2.51,2.22.85,3.35,1.91,3.35,3.82s-1.5,3.75-4.6,3.75A6.83,6.83,0,0,1,590,296Z"/><path class="cls-3" d="M608.34,283.64v13h-1.69v-13Z"/><path class="cls-3" d="M627.72,296.08a12.33,12.33,0,0,1-4,.71,6.78,6.78,0,0,1-4.91-1.72,6.67,6.67,0,0,1-1.83-4.85c0-3.88,2.71-6.72,7.11-6.72a8.17,8.17,0,0,1,3.27.6l-.41,1.37a6.86,6.86,0,0,0-2.9-.56,4.89,4.89,0,0,0-5.28,5.23c0,3.3,2,5.25,5.06,5.25a5.57,5.57,0,0,0,2.26-.35v-3.88H623.4v-1.35h4.32Z"/><path class="cls-3" d="M636.74,296.66v-13h1.85l4.21,6.59a36.65,36.65,0,0,1,2.36,4.23l0,0c-.16-1.74-.19-3.32-.19-5.35v-5.45h1.6v13h-1.71l-4.17-6.61a41.14,41.14,0,0,1-2.45-4.34l-.06,0c.1,1.64.14,3.21.14,5.37v5.56Z"/><path class="cls-3" d="M662.78,290.55h-5.1v4.69h5.69v1.41H656v-13h7.09V285h-5.4v4.11h5.1Z"/><path class="cls-3" d="M672,283.81a17.82,17.82,0,0,1,3.25-.27,5.4,5.4,0,0,1,3.8,1.06,3.23,3.23,0,0,1,1,2.47,3.42,3.42,0,0,1-2.47,3.32v.06a3.25,3.25,0,0,1,1.93,2.63,20.56,20.56,0,0,0,1,3.57h-1.75a16.73,16.73,0,0,1-.88-3.11c-.39-1.8-1.09-2.47-2.63-2.53h-1.6v5.64H672Zm1.69,5.93h1.73c1.81,0,3-1,3-2.47,0-1.68-1.23-2.41-3-2.43a7,7,0,0,0-1.68.15Z"/><path class="cls-3" d="M707.68,296.66c-.37-.37-.72-.73-1.23-1.28a5.41,5.41,0,0,1-3.84,1.49,3.7,3.7,0,0,1-4-3.65,4.28,4.28,0,0,1,2.57-3.8v-.06a4.45,4.45,0,0,1-1.09-2.72,3.17,3.17,0,0,1,3.33-3.21,2.72,2.72,0,0,1,2.9,2.76c0,1.37-.8,2.45-2.88,3.48v.06c1.11,1.27,2.36,2.7,3.19,3.63a9.48,9.48,0,0,0,1.27-3.8h1.56a9.84,9.84,0,0,1-1.89,4.81c.7.73,1.38,1.47,2.16,2.3Zm-2.06-2.24c-.78-.85-2.24-2.43-3.7-4.09a3.2,3.2,0,0,0-1.69,2.65,2.58,2.58,0,0,0,2.69,2.63A3.68,3.68,0,0,0,705.61,294.42Zm-4-7.94a3.64,3.64,0,0,0,1,2.34c1.32-.75,2.18-1.45,2.18-2.55a1.54,1.54,0,0,0-1.52-1.68A1.7,1.7,0,0,0,701.62,286.48Z"/><path class="cls-3" d="M739.29,290.94c-.1-1.82-.21-4-.19-5.62H739c-.45,1.53-1,3.15-1.66,4.94l-2.32,6.32h-1.29l-2.12-6.2c-.62-1.84-1.15-3.51-1.52-5.06h0c0,1.62-.14,3.8-.25,5.76l-.35,5.58h-1.62l.92-13H731l2.24,6.3c.55,1.6,1,3,1.32,4.38h.06c.33-1.31.8-2.74,1.38-4.38l2.34-6.3h2.16l.82,13h-1.66Z"/><path class="cls-3" d="M752.24,292.56l-1.36,4.09h-1.75l4.46-13h2l4.48,13H758.3l-1.4-4.09Zm4.3-1.31-1.29-3.75c-.29-.85-.49-1.62-.68-2.38h0c-.19.77-.41,1.56-.66,2.36l-1.29,3.77Z"/><path class="cls-3" d="M768.46,283.64h1.69v6.28h.06c.35-.5.7-1,1-1.39l4-4.89h2.1l-4.75,5.52,5.12,7.49h-2l-4.32-6.39-1.25,1.43v5h-1.69Z"/><path class="cls-3" d="M792.25,290.55h-5.1v4.69h5.69v1.41h-7.38v-13h7.09V285h-5.4v4.11h5.1Z"/><path class="cls-3" d="M801.46,283.81a17.82,17.82,0,0,1,3.25-.27,5.4,5.4,0,0,1,3.8,1.06,3.23,3.23,0,0,1,1,2.47,3.42,3.42,0,0,1-2.47,3.32v.06a3.25,3.25,0,0,1,1.93,2.63,20.65,20.65,0,0,0,1,3.57h-1.75a16.75,16.75,0,0,1-.88-3.11c-.39-1.8-1.09-2.47-2.63-2.53h-1.6v5.64h-1.69Zm1.69,5.93h1.73c1.81,0,3-1,3-2.47,0-1.68-1.23-2.41-3-2.43a7,7,0,0,0-1.68.15Z"/><ellipse class="cls-4" cx="686.36" cy="223.37" rx="190.66" ry="181.85"/><ellipse class="cls-4" cx="680.17" cy="223.37" rx="190.66" ry="181.85"/></svg>